<svg width="280" height="280" viewBox="0 0 280 280" fill="none" xmlns="http://www.w3.org/2000/svg">
<g clip-path="url(#clip0_1363_39005)">
<path fill-rule="evenodd" clip-rule="evenodd" d="M67.053 72.7213C76.7892 70.0627 84.4212 67.9788 90.6519 66.9939C97.0103 65.9889 102.389 66.0388 107.496 68.036C110.588 69.2451 113.473 70.9425 116.047 73.0659C120.298 76.5733 123.03 81.2947 125.355 87.4077C127.633 93.3979 129.678 101.174 132.286 111.094L132.415 111.584C135.023 121.504 137.068 129.28 138.034 135.628C139.02 142.107 138.971 147.588 137.01 152.791C135.823 155.941 134.157 158.881 132.073 161.504C128.63 165.835 123.996 168.619 117.997 170.989C112.118 173.31 104.485 175.394 94.7494 178.053L94.269 178.184C84.533 180.842 76.9012 182.926 70.6706 183.911C64.3122 184.916 58.933 184.866 53.8263 182.869C50.7347 181.66 47.8492 179.962 45.2757 177.839C41.0247 174.332 38.2927 169.61 35.9678 163.497C33.6896 157.507 31.6449 149.731 29.0365 139.811L28.9079 139.322C26.2994 129.401 24.2547 121.625 23.2885 115.277C22.3025 108.798 22.3518 103.317 24.3123 98.1138C25.4992 94.9637 27.1653 92.0235 29.2494 89.4011C32.692 85.0695 37.326 82.2856 43.3257 79.9163C49.2049 77.5946 56.8368 75.5107 66.5731 72.8523L67.053 72.7213ZM77.5357 97.3587C76.9474 95.1213 74.6903 93.7936 72.4944 94.3932C70.2984 94.9928 68.9952 97.2927 69.5835 99.5301L83.7868 153.546C84.3751 155.784 86.6322 157.111 88.8281 156.512C91.024 155.912 92.3273 153.612 91.7389 151.375L77.5357 97.3587ZM104.423 113.175C103.834 110.938 101.577 109.61 99.3814 110.209C97.1855 110.809 95.8823 113.109 96.4706 115.346L104.993 147.756C105.581 149.993 107.838 151.321 110.034 150.722C112.23 150.122 113.533 147.822 112.945 145.585L104.423 113.175ZM64.8519 135.559C64.2636 133.321 62.0065 131.993 59.8106 132.593C57.6146 133.193 56.3114 135.493 56.8997 137.73L62.581 159.336C63.1693 161.574 65.4264 162.902 67.6223 162.302C69.8183 161.702 71.1215 159.402 70.5332 157.165L64.8519 135.559Z" fill="url(#paint0_linear_1363_39005)"/>
</g>
<g clip-path="url(#clip1_1363_39005)">
<g filter="url(#filter0_b_1363_39005)">
<path fill-rule="evenodd" clip-rule="evenodd" d="M168.495 51.8555C184.804 56.3219 197.589 59.8229 207.438 63.7208C217.489 67.6984 225.253 72.3697 231.024 79.6336C234.517 84.0311 237.311 88.961 239.302 94.2422C242.591 102.966 242.679 112.152 241.034 123.01C239.423 133.649 236.006 146.681 231.648 163.305L231.433 164.125C227.075 180.749 223.659 193.78 219.849 203.818C215.962 214.061 211.391 221.971 204.275 227.846C199.967 231.402 195.136 234.244 189.959 236.267C181.408 239.609 172.399 239.686 161.749 237.995C151.313 236.337 138.528 232.836 122.218 228.37L121.414 228.149C105.105 223.683 92.3202 220.182 82.4711 216.284C72.4201 212.306 64.656 207.635 58.8856 200.371C55.3922 195.974 52.5987 191.044 50.6076 185.763C47.3186 177.039 47.2302 167.853 48.8748 156.995C50.4863 146.355 53.9027 133.324 58.2612 116.7L58.476 115.881C62.8343 99.2563 66.2506 86.225 70.06 76.1873C73.9474 65.944 78.5181 58.0334 85.6342 52.1593C89.9422 48.6032 94.7732 45.7613 99.9499 43.7381C108.501 40.3962 117.51 40.3185 128.16 42.01C138.597 43.6676 151.381 47.1688 167.691 51.6353L168.495 51.8555Z" fill="#2F4DE2" fill-opacity="0.35"/>
<path fill-rule="evenodd" clip-rule="evenodd" d="M168.495 51.8555C184.804 56.3219 197.589 59.8229 207.438 63.7208C217.489 67.6984 225.253 72.3697 231.024 79.6336C234.517 84.0311 237.311 88.961 239.302 94.2422C242.591 102.966 242.679 112.152 241.034 123.01C239.423 133.649 236.006 146.681 231.648 163.305L231.433 164.125C227.075 180.749 223.659 193.78 219.849 203.818C215.962 214.061 211.391 221.971 204.275 227.846C199.967 231.402 195.136 234.244 189.959 236.267C181.408 239.609 172.399 239.686 161.749 237.995C151.313 236.337 138.528 232.836 122.218 228.37L121.414 228.149C105.105 223.683 92.3202 220.182 82.4711 216.284C72.4201 212.306 64.656 207.635 58.8856 200.371C55.3922 195.974 52.5987 191.044 50.6076 185.763C47.3186 177.039 47.2302 167.853 48.8748 156.995C50.4863 146.355 53.9027 133.324 58.2612 116.7L58.476 115.881C62.8343 99.2563 66.2506 86.225 70.06 76.1873C73.9474 65.944 78.5181 58.0334 85.6342 52.1593C89.9422 48.6032 94.7732 45.7613 99.9499 43.7381C108.501 40.3962 117.51 40.3185 128.16 42.01C138.597 43.6676 151.381 47.1688 167.691 51.6353L168.495 51.8555Z" stroke="url(#paint1_linear_1363_39005)" stroke-linecap="round"/>
</g>
<g filter="url(#filter1_d_1363_39005)">
<path fill-rule="evenodd" clip-rule="evenodd" d="M163.481 96.5655C164.464 92.816 162.279 88.9599 158.6 87.9525C154.922 86.9451 151.143 89.168 150.16 92.9175L126.429 183.438C125.446 187.187 127.631 191.043 131.309 192.051C134.988 193.058 138.766 190.835 139.749 187.086L163.481 96.5655ZM189.511 142.502C190.494 138.752 188.309 134.896 184.63 133.889C180.952 132.881 177.173 135.104 176.19 138.854L161.951 193.166C160.968 196.915 163.153 200.771 166.832 201.779C170.51 202.786 174.289 200.563 175.272 196.814L189.511 142.502ZM113.72 141.149C114.703 137.4 112.517 133.544 108.839 132.536C105.161 131.529 101.382 133.752 100.399 137.501L90.9061 173.709C89.9231 177.459 92.1082 181.315 95.7867 182.322C99.4652 183.33 103.244 181.107 104.227 177.357L113.72 141.149Z" fill="url(#paint2_linear_1363_39005)"/>
</g>
</g>
<defs>
<filter id="filter0_b_1363_39005" x="23.3281" y="16.4238" width="243.253" height="247.158" filterUnits="userSpaceOnUse" color-interpolation-filters="sRGB">
<feFlood flood-opacity="0" result="BackgroundImageFix"/>
<feGaussianBlur in="BackgroundImage" stdDeviation="12"/>
<feComposite in2="SourceAlpha" operator="in" result="effect1_backgroundBlur_1363_39005"/>
<feBlend mode="normal" in="SourceGraphic" in2="effect1_backgroundBlur_1363_39005" result="shape"/>
</filter>
<filter id="filter1_d_1363_39005" x="87.6709" y="84.7109" width="115.075" height="130.311" filterUnits="userSpaceOnUse" color-interpolation-filters="sRGB">
<feFlood flood-opacity="0" result="BackgroundImageFix"/>
<feColorMatrix in="SourceAlpha" type="matrix" values="0 0 0 0 0 0 0 0 0 0 0 0 0 0 0 0 0 0 127 0" result="hardAlpha"/>
<feOffset dx="5" dy="5"/>
<feGaussianBlur stdDeviation="4"/>
<feColorMatrix type="matrix" values="0 0 0 0 0.176471 0 0 0 0 0.556863 0 0 0 0 0.678431 0 0 0 0.5 0"/>
<feBlend mode="normal" in2="BackgroundImageFix" result="effect1_dropShadow_1363_39005"/>
<feBlend mode="normal" in="SourceGraphic" in2="effect1_dropShadow_1363_39005" result="shape"/>
</filter>
<linearGradient id="paint0_linear_1363_39005" x1="42.8204" y1="192.232" x2="123.486" y2="61.7543" gradientUnits="userSpaceOnUse">
<stop stop-color="#2F4DE2"/>
<stop offset="1" stop-color="#2441D1"/>
</linearGradient>
<linearGradient id="paint1_linear_1363_39005" x1="81.5068" y1="28.0332" x2="212.107" y2="249.79" gradientUnits="userSpaceOnUse">
<stop stop-color="white" stop-opacity="0.25"/>
<stop offset="1" stop-color="white" stop-opacity="0"/>
</linearGradient>
<linearGradient id="paint2_linear_1363_39005" x1="126.205" y1="214.422" x2="294.945" y2="140.656" gradientUnits="userSpaceOnUse">
<stop stop-color="white"/>
<stop offset="1" stop-color="white" stop-opacity="0.2"/>
</linearGradient>
<clipPath id="clip0_1363_39005">
<rect width="131.892" height="134.045" fill="white" transform="matrix(0.964685 -0.263406 0.254301 0.967125 0 78.0039)"/>
</clipPath>
<clipPath id="clip1_1363_39005">
<rect width="220.983" height="224.59" fill="white" transform="matrix(0.964487 0.264131 -0.253598 0.96731 66.8652 2.19336)"/>
</clipPath>
</defs>
</svg>
