<svg width="280" height="280" viewBox="0 0 280 280" fill="none" xmlns="http://www.w3.org/2000/svg">
<path d="M85.0698 123.057C115.273 123.057 139.757 147.443 139.757 177.525C139.757 207.608 115.273 231.994 85.0698 231.994C54.8667 231.994 30.3823 207.608 30.3823 177.525C30.3823 147.443 54.8667 123.057 85.0698 123.057Z" fill="url(#paint0_linear_1363_31896)"/>
<path d="M39.6806 229.152C41.4604 227.379 41.4604 224.505 39.6807 222.732C37.9009 220.96 35.0154 220.96 33.2357 222.732L8.93043 246.94C7.15068 248.713 7.15067 251.587 8.93039 253.359C10.7101 255.132 13.5956 255.132 15.3754 253.359L39.6806 229.152Z" fill="url(#paint1_linear_1363_31896)"/>
<g filter="url(#filter0_b_1363_31896)">
<path fill-rule="evenodd" clip-rule="evenodd" d="M58.3335 122.57C58.3335 74.4383 97.5086 35.4199 145.834 35.4199C194.158 35.4199 233.334 74.4383 233.334 122.57C233.334 170.702 194.158 209.72 145.834 209.72C97.5086 209.72 58.3335 170.702 58.3335 122.57Z" fill="#2F4DE2" fill-opacity="0.35"/>
<path d="M218.455 194.901C221.303 192.065 225.92 192.065 228.767 194.901L267.655 233.634C270.503 236.47 270.503 241.069 267.655 243.905C264.808 246.741 260.191 246.741 257.343 243.905L218.455 205.172C215.608 202.336 215.608 197.737 218.455 194.901Z" fill="#2F4DE2" fill-opacity="0.35"/>
<path fill-rule="evenodd" clip-rule="evenodd" d="M58.3335 122.57C58.3335 74.4383 97.5086 35.4199 145.834 35.4199C194.158 35.4199 233.334 74.4383 233.334 122.57C233.334 170.702 194.158 209.72 145.834 209.72C97.5086 209.72 58.3335 170.702 58.3335 122.57Z" stroke="url(#paint2_linear_1363_31896)" stroke-linecap="round"/>
<path d="M218.455 194.901C221.303 192.065 225.92 192.065 228.767 194.901L267.655 233.634C270.503 236.47 270.503 241.069 267.655 243.905C264.808 246.741 260.191 246.741 257.343 243.905L218.455 205.172C215.608 202.336 215.608 197.737 218.455 194.901Z" stroke="url(#paint3_linear_1363_31896)" stroke-linecap="round"/>
</g>
<g filter="url(#filter1_d_1363_31896)">
<path fill-rule="evenodd" clip-rule="evenodd" d="M135.708 63.9302C136.338 67.8918 133.625 71.6119 129.647 72.2394C111.967 75.0285 98.1006 88.8394 95.3003 106.449C94.6703 110.411 90.9352 113.113 86.9577 112.486C82.9802 111.858 80.2665 108.138 80.8965 104.177C84.6851 80.352 103.446 61.6667 127.366 57.8932C131.343 57.2658 135.078 59.9686 135.708 63.9302Z" fill="url(#paint4_linear_1363_31896)"/>
</g>
<defs>
<filter id="filter0_b_1363_31896" x="33.8335" y="10.9199" width="260.458" height="259.611" filterUnits="userSpaceOnUse" color-interpolation-filters="sRGB">
<feFlood flood-opacity="0" result="BackgroundImageFix"/>
<feGaussianBlur in="BackgroundImage" stdDeviation="12"/>
<feComposite in2="SourceAlpha" operator="in" result="effect1_backgroundBlur_1363_31896"/>
<feBlend mode="normal" in="SourceGraphic" in2="effect1_backgroundBlur_1363_31896" result="shape"/>
</filter>
<filter id="filter1_d_1363_31896" x="77.5498" y="54.5469" width="68.017" height="67.7968" filterUnits="userSpaceOnUse" color-interpolation-filters="sRGB">
<feFlood flood-opacity="0" result="BackgroundImageFix"/>
<feColorMatrix in="SourceAlpha" type="matrix" values="0 0 0 0 0 0 0 0 0 0 0 0 0 0 0 0 0 0 127 0" result="hardAlpha"/>
<feOffset dx="3.25583" dy="3.25583"/>
<feGaussianBlur stdDeviation="3.25583"/>
<feColorMatrix type="matrix" values="0 0 0 0 0.184314 0 0 0 0 0.301961 0 0 0 0 0.886275 0 0 0 0.3 0"/>
<feBlend mode="normal" in2="BackgroundImageFix" result="effect1_dropShadow_1363_31896"/>
<feBlend mode="normal" in="SourceGraphic" in2="effect1_dropShadow_1363_31896" result="shape"/>
</filter>
<linearGradient id="paint0_linear_1363_31896" x1="7.59561" y1="123.057" x2="136.274" y2="258.01" gradientUnits="userSpaceOnUse">
<stop stop-color="#2F4DE2"/>
<stop offset="1" stop-color="#1A37C6"/>
</linearGradient>
<linearGradient id="paint1_linear_1363_31896" x1="7.59561" y1="123.057" x2="136.274" y2="258.01" gradientUnits="userSpaceOnUse">
<stop stop-color="#2F4DE2"/>
<stop offset="1" stop-color="#1A37C6"/>
</linearGradient>
<linearGradient id="paint2_linear_1363_31896" x1="58.3335" y1="35.4199" x2="269.051" y2="246.769" gradientUnits="userSpaceOnUse">
<stop stop-color="white" stop-opacity="0.25"/>
<stop offset="1" stop-color="white" stop-opacity="0"/>
</linearGradient>
<linearGradient id="paint3_linear_1363_31896" x1="58.3335" y1="35.4199" x2="269.051" y2="246.769" gradientUnits="userSpaceOnUse">
<stop stop-color="white" stop-opacity="0.25"/>
<stop offset="1" stop-color="white" stop-opacity="0"/>
</linearGradient>
<linearGradient id="paint4_linear_1363_31896" x1="108.766" y1="124.246" x2="184.367" y2="49.8395" gradientUnits="userSpaceOnUse">
<stop stop-color="white"/>
<stop offset="1" stop-color="white" stop-opacity="0.2"/>
</linearGradient>
</defs>
</svg>
