<svg width="280" height="280" viewBox="0 0 280 280" fill="none" xmlns="http://www.w3.org/2000/svg">
<rect x="115.294" width="164.706" height="166.667" rx="10" fill="url(#paint0_linear_1363_31567)"/>
<g filter="url(#filter0_b_1363_31567)">
<path fill-rule="evenodd" clip-rule="evenodd" d="M131.268 38.334H132.262C152.428 38.3339 168.235 38.3338 180.776 39.7087C193.574 41.1118 203.944 44.0265 212.798 50.5357C218.158 54.4763 222.871 59.2461 226.766 64.6699C233.198 73.6291 236.079 84.1222 237.465 97.0726C238.824 109.763 238.824 125.758 238.824 146.163V147.17C238.824 167.576 238.824 183.572 237.465 196.262C236.079 209.212 233.198 219.705 226.766 228.665C222.871 234.088 218.158 238.858 212.798 242.799C203.944 249.308 193.574 252.223 180.776 253.626C168.235 255.001 152.428 255.001 132.263 255.001H131.268C111.102 255.001 95.2945 255.001 82.7536 253.626C69.9556 252.223 59.5859 249.308 50.7322 242.799C45.3721 238.858 40.6585 234.088 36.7642 228.665C30.3316 219.706 27.4512 209.212 26.0646 196.262C24.7059 183.572 24.706 167.576 24.7061 147.17V146.165C24.706 125.759 24.7059 109.763 26.0646 97.0726C27.4512 84.1222 30.3316 73.6291 36.7642 64.6699C40.6585 59.2461 45.3721 54.4763 50.7322 50.5357C59.5859 44.0265 69.9556 41.1118 82.7536 39.7087C95.2947 38.3338 111.102 38.3339 131.268 38.334Z" fill="#2F4DE2" fill-opacity="0.35"/>
<path fill-rule="evenodd" clip-rule="evenodd" d="M131.268 38.334H132.262C152.428 38.3339 168.235 38.3338 180.776 39.7087C193.574 41.1118 203.944 44.0265 212.798 50.5357C218.158 54.4763 222.871 59.2461 226.766 64.6699C233.198 73.6291 236.079 84.1222 237.465 97.0726C238.824 109.763 238.824 125.758 238.824 146.163V147.17C238.824 167.576 238.824 183.572 237.465 196.262C236.079 209.212 233.198 219.705 226.766 228.665C222.871 234.088 218.158 238.858 212.798 242.799C203.944 249.308 193.574 252.223 180.776 253.626C168.235 255.001 152.428 255.001 132.263 255.001H131.268C111.102 255.001 95.2945 255.001 82.7536 253.626C69.9556 252.223 59.5859 249.308 50.7322 242.799C45.3721 238.858 40.6585 234.088 36.7642 228.665C30.3316 219.706 27.4512 209.212 26.0646 196.262C24.7059 183.572 24.706 167.576 24.7061 147.17V146.165C24.706 125.759 24.7059 109.763 26.0646 97.0726C27.4512 84.1222 30.3316 73.6291 36.7642 64.6699C40.6585 59.2461 45.3721 54.4763 50.7322 50.5357C59.5859 44.0265 69.9556 41.1118 82.7536 39.7087C95.2947 38.3338 111.102 38.3339 131.268 38.334Z" stroke="url(#paint1_linear_1363_31567)" stroke-linecap="round"/>
</g>
<g filter="url(#filter1_d_1363_31567)">
<path fill-rule="evenodd" clip-rule="evenodd" d="M98.8235 82.7789H142.575C142.682 82.7768 142.79 82.7768 142.897 82.7789H186.667C191.215 82.7789 194.902 86.5099 194.902 91.1123C194.902 95.7146 191.215 99.4456 186.667 99.4456H149.496L130.83 193.89H164.706C169.254 193.89 172.941 197.621 172.941 202.223C172.941 206.826 169.254 210.557 164.706 210.557H120.954C120.847 210.559 120.74 210.559 120.632 210.557H76.8627C72.3145 210.557 68.6274 206.826 68.6274 202.223C68.6274 197.621 72.3145 193.89 76.8627 193.89H114.033L132.7 99.4456H98.8235C94.2753 99.4456 90.5882 95.7146 90.5882 91.1123C90.5882 86.5099 94.2753 82.7789 98.8235 82.7789Z" fill="url(#paint2_linear_1363_31567)"/>
</g>
<defs>
<filter id="filter0_b_1363_31567" x="0.206055" y="13.834" width="263.118" height="265.666" filterUnits="userSpaceOnUse" color-interpolation-filters="sRGB">
<feFlood flood-opacity="0" result="BackgroundImageFix"/>
<feGaussianBlur in="BackgroundImage" stdDeviation="12"/>
<feComposite in2="SourceAlpha" operator="in" result="effect1_backgroundBlur_1363_31567"/>
<feBlend mode="normal" in="SourceGraphic" in2="effect1_backgroundBlur_1363_31567" result="shape"/>
</filter>
<filter id="filter1_d_1363_31567" x="65.3716" y="79.5215" width="139.298" height="140.805" filterUnits="userSpaceOnUse" color-interpolation-filters="sRGB">
<feFlood flood-opacity="0" result="BackgroundImageFix"/>
<feColorMatrix in="SourceAlpha" type="matrix" values="0 0 0 0 0 0 0 0 0 0 0 0 0 0 0 0 0 0 127 0" result="hardAlpha"/>
<feOffset dx="3.25583" dy="3.25583"/>
<feGaussianBlur stdDeviation="3.25583"/>
<feColorMatrix type="matrix" values="0 0 0 0 0.184314 0 0 0 0 0.301961 0 0 0 0 0.886275 0 0 0 0.2 0"/>
<feBlend mode="normal" in2="BackgroundImageFix" result="effect1_dropShadow_1363_31567"/>
<feBlend mode="normal" in="SourceGraphic" in2="effect1_dropShadow_1363_31567" result="shape"/>
</filter>
<linearGradient id="paint0_linear_1363_31567" x1="115.294" y1="166.667" x2="285.412" y2="5.72099" gradientUnits="userSpaceOnUse">
<stop stop-color="#2F4DE2"/>
<stop offset="1" stop-color="#536DF8"/>
</linearGradient>
<linearGradient id="paint1_linear_1363_31567" x1="24.7061" y1="38.334" x2="241.465" y2="252.325" gradientUnits="userSpaceOnUse">
<stop stop-color="white" stop-opacity="0.25"/>
<stop offset="1" stop-color="white" stop-opacity="0"/>
</linearGradient>
<linearGradient id="paint2_linear_1363_31567" x1="132.828" y1="237.781" x2="309.132" y2="66.9972" gradientUnits="userSpaceOnUse">
<stop stop-color="white"/>
<stop offset="1" stop-color="white" stop-opacity="0.2"/>
</linearGradient>
</defs>
</svg>
