<svg width="146" height="43" viewBox="0 0 146 43" fill="none" xmlns="http://www.w3.org/2000/svg">
<path d="M140.806 42H5.11433C2.84289 42 1 40.1558 1 37.912V5.08045C1 2.83763 2.84082 1 5.11433 1H140.806C143.099 1 145 2.85773 145 5.08045V37.912C145 40.1357 143.096 42 140.806 42Z" fill="none" stroke="white" stroke-width="2"/>
<path d="M32.5826 21.2679C32.5513 17.8032 35.4367 16.1176 35.5686 16.0391C33.9345 13.6709 31.4017 13.3473 30.5116 13.3215C28.3843 13.099 26.3209 14.5868 25.2372 14.5868C24.132 14.5868 22.4632 13.343 20.6647 13.3796C18.3504 13.415 16.1852 14.747 14.9978 16.8153C12.5471 21.0325 14.3748 27.2299 16.7227 30.6387C17.8972 32.3082 19.2696 34.1722 21.066 34.1066C22.8234 34.0346 23.4798 32.9929 25.6006 32.9929C27.7019 32.9929 28.3184 34.1066 30.1504 34.0647C32.0365 34.0346 33.224 32.3877 34.3574 30.7032C35.7146 28.7897 36.2597 26.9052 36.2813 26.8085C36.237 26.7934 32.6183 25.4206 32.5826 21.2679Z" fill="white"/>
<path d="M29.1226 11.079C30.0679 9.90405 30.7147 8.30552 30.5352 6.68335C29.167 6.74355 27.4559 7.62398 26.4706 8.77315C25.5988 9.7858 24.8201 11.4456 25.0213 13.0065C26.5582 13.1205 28.1362 12.2357 29.1226 11.079Z" fill="white"/>
<path d="M58.0157 33.8674H55.5596L54.2143 29.6652H49.5379L48.2564 33.8674H45.8652L50.4983 19.5613H53.3599L58.0157 33.8674ZM53.8087 27.9022L52.592 24.1666C52.4633 23.785 52.2222 22.8863 51.8664 21.4716H51.8231C51.6814 22.08 51.4532 22.9787 51.1396 24.1666L49.9446 27.9022H53.8087V27.9022Z" fill="white"/>
<path d="M69.9305 28.5824C69.9305 30.3368 69.4536 31.7235 68.4997 32.7416C67.6453 33.6478 66.5844 34.1004 65.318 34.1004C63.951 34.1004 62.969 33.6123 62.3709 32.6362H62.3277V38.0703H60.022V26.9473C60.022 25.8444 59.9928 24.7124 59.9365 23.5514H61.9643L62.093 25.1865H62.1363C62.9052 23.9545 64.0721 23.3396 65.6381 23.3396C66.8623 23.3396 67.8843 23.8201 68.7019 24.7823C69.5217 25.7455 69.9305 27.0118 69.9305 28.5824ZM67.5815 28.6662C67.5815 27.6622 67.3544 26.8344 66.898 26.183C66.3995 25.5036 65.73 25.1639 64.8908 25.1639C64.3219 25.1639 63.805 25.3531 63.3432 25.7261C62.8803 26.1024 62.5775 26.5936 62.4358 27.2021C62.3644 27.4859 62.3288 27.7181 62.3288 27.9008V29.6208C62.3288 30.3712 62.5602 31.0044 63.0231 31.5214C63.4859 32.0385 64.0872 32.2965 64.827 32.2965C65.6954 32.2965 66.3713 31.9633 66.8548 31.2989C67.3393 30.6335 67.5815 29.7563 67.5815 28.6662Z" fill="white"/>
<path d="M81.8669 28.5824C81.8669 30.3368 81.39 31.7235 80.435 32.7416C79.5817 33.6478 78.5208 34.1004 77.2544 34.1004C75.8874 34.1004 74.9054 33.6123 74.3084 32.6362H74.2652V38.0703H71.9595V26.9473C71.9595 25.8444 71.9303 24.7124 71.874 23.5514H73.9018L74.0305 25.1865H74.0738C74.8416 23.9545 76.0085 23.3396 77.5756 23.3396C78.7987 23.3396 79.8207 23.8201 80.6405 24.7823C81.457 25.7455 81.8669 27.0118 81.8669 28.5824ZM79.5179 28.6662C79.5179 27.6622 79.2897 26.8344 78.8334 26.183C78.3348 25.5036 77.6675 25.1639 76.8272 25.1639C76.2573 25.1639 75.7414 25.3531 75.2785 25.7261C74.8157 26.1024 74.5139 26.5936 74.3722 27.2021C74.3019 27.4859 74.2652 27.7181 74.2652 27.9008V29.6208C74.2652 30.3712 74.4966 31.0044 74.9573 31.5214C75.4202 32.0374 76.0215 32.2965 76.7634 32.2965C77.6318 32.2965 78.3078 31.9633 78.7912 31.2989C79.2757 30.6335 79.5179 29.7563 79.5179 28.6662Z" fill="white"/>
<path d="M95.2119 29.8551C95.2119 31.072 94.7869 32.0621 93.9336 32.8264C92.9959 33.6617 91.6906 34.0788 90.0132 34.0788C88.4645 34.0788 87.223 33.7821 86.2832 33.1876L86.8175 31.2774C87.8297 31.8858 88.9404 32.1911 90.1506 32.1911C91.019 32.1911 91.6949 31.9955 92.1805 31.6063C92.6639 31.2172 92.9051 30.6947 92.9051 30.0433C92.9051 29.4628 92.7061 28.9736 92.307 28.577C91.9101 28.1803 91.2472 27.8116 90.3214 27.4708C87.8016 26.5366 86.5428 25.1681 86.5428 23.3686C86.5428 22.1925 86.984 21.2283 87.8676 20.4779C88.7479 19.7265 89.9224 19.3513 91.391 19.3513C92.7007 19.3513 93.7887 19.5781 94.6571 20.0307L94.0806 21.8991C93.2695 21.4605 92.3525 21.2412 91.3261 21.2412C90.515 21.2412 89.8813 21.44 89.4271 21.8356C89.0431 22.1893 88.8506 22.6204 88.8506 23.131C88.8506 23.6965 89.0702 24.1641 89.5114 24.5317C89.8953 24.8714 90.5929 25.2391 91.6052 25.6358C92.8434 26.1313 93.753 26.7108 94.338 27.3751C94.921 28.0373 95.2119 28.8661 95.2119 29.8551Z" fill="white"/>
<path d="M102.836 25.2713H100.295V30.2797C100.295 31.5536 100.742 32.19 101.64 32.19C102.052 32.19 102.394 32.1545 102.664 32.0835L102.728 33.824C102.274 33.9927 101.676 34.0777 100.935 34.0777C100.024 34.0777 99.3126 33.8014 98.7988 33.2499C98.2872 32.6974 98.0298 31.7707 98.0298 30.4689V25.2691H96.5156V23.5491H98.0298V21.6604L100.295 20.981V23.5491H102.836V25.2713Z" fill="white"/>
<path d="M114.302 28.6242C114.302 30.2098 113.846 31.5117 112.935 32.5297C111.981 33.5778 110.713 34.1003 109.133 34.1003C107.61 34.1003 106.398 33.5982 105.494 32.5942C104.59 31.5901 104.138 30.3227 104.138 28.7951C104.138 27.1966 104.603 25.8873 105.536 24.8692C106.467 23.8501 107.724 23.3406 109.304 23.3406C110.827 23.3406 112.052 23.8426 112.977 24.8477C113.861 25.8228 114.302 27.0816 114.302 28.6242ZM111.91 28.6984C111.91 27.747 111.706 26.9311 111.292 26.2506C110.808 25.4272 110.117 25.0165 109.222 25.0165C108.295 25.0165 107.591 25.4282 107.107 26.2506C106.693 26.9322 106.489 27.761 106.489 28.7414C106.489 29.6928 106.693 30.5087 107.107 31.1881C107.606 32.0115 108.302 32.4222 109.201 32.4222C110.081 32.4222 110.773 32.0029 111.271 31.1666C111.696 30.4732 111.91 29.6487 111.91 28.6984Z" fill="white"/>
<path d="M121.798 25.567C121.57 25.5251 121.326 25.5036 121.071 25.5036C120.26 25.5036 119.633 25.8078 119.191 26.4173C118.807 26.9548 118.615 27.6342 118.615 28.4545V33.8671H116.31L116.332 26.8C116.332 25.6111 116.302 24.5286 116.245 23.5524H118.254L118.338 25.5262H118.402C118.645 24.8478 119.029 24.3017 119.555 23.8922C120.069 23.5234 120.623 23.3396 121.222 23.3396C121.435 23.3396 121.627 23.3546 121.798 23.3815V25.567Z" fill="white"/>
<path d="M132.109 28.2212C132.109 28.6319 132.082 28.978 132.024 29.2608H125.107C125.134 30.2799 125.468 31.0593 126.111 31.5968C126.694 32.0773 127.447 32.3181 128.373 32.3181C129.397 32.3181 130.332 32.1558 131.172 31.83L131.533 33.421C130.551 33.8467 129.392 34.0585 128.054 34.0585C126.445 34.0585 125.182 33.5877 124.262 32.647C123.345 31.7064 122.886 30.4433 122.886 28.8587C122.886 27.3032 123.313 26.0078 124.168 24.9747C125.064 23.8718 126.274 23.3203 127.797 23.3203C129.292 23.3203 130.425 23.8718 131.194 24.9747C131.803 25.8509 132.109 26.9345 132.109 28.2212ZM129.91 27.6268C129.925 26.9474 129.775 26.3604 129.462 25.8648C129.063 25.2274 128.45 24.9092 127.625 24.9092C126.871 24.9092 126.258 25.2198 125.79 25.8433C125.406 26.3389 125.177 26.9334 125.107 27.6257H129.91V27.6268Z" fill="white"/>
<path d="M53.0468 10.7598C53.0468 12.0251 52.665 12.9776 51.9025 13.6172C51.1962 14.2074 50.1925 14.503 48.8924 14.503C48.2478 14.503 47.6962 14.475 47.2344 14.4191V7.50582C47.8368 7.40907 48.4858 7.35962 49.1866 7.35962C50.425 7.35962 51.3585 7.62729 51.9879 8.16264C52.6931 8.76787 53.0468 9.63324 53.0468 10.7598ZM51.8517 10.791C51.8517 9.9708 51.6332 9.34192 51.1962 8.90332C50.7593 8.46579 50.1211 8.24649 49.2807 8.24649C48.9238 8.24649 48.6199 8.27014 48.3679 8.31959V13.5753C48.5074 13.5968 48.7627 13.6064 49.1336 13.6064C50.0011 13.6064 50.6706 13.3667 51.1421 12.8873C51.6137 12.4078 51.8517 11.7091 51.8517 10.791Z" fill="white"/>
<path d="M59.3833 11.8648C59.3833 12.6442 59.1594 13.2828 58.7117 13.7837C58.2423 14.2986 57.6203 14.5556 56.8438 14.5556C56.0953 14.5556 55.4994 14.3094 55.0548 13.8149C54.6114 13.3215 54.3896 12.699 54.3896 11.9487C54.3896 11.1639 54.6179 10.52 55.0765 10.0201C55.535 9.52025 56.1516 9.26978 56.9281 9.26978C57.6766 9.26978 58.2779 9.51595 58.7333 10.0094C59.1659 10.4888 59.3833 11.108 59.3833 11.8648ZM58.2076 11.9014C58.2076 11.4338 58.106 11.0328 57.9037 10.6985C57.6658 10.2943 57.3272 10.0922 56.887 10.0922C56.4317 10.0922 56.0856 10.2943 55.8476 10.6985C55.6443 11.0328 55.5437 11.4402 55.5437 11.9218C55.5437 12.3894 55.6454 12.7904 55.8476 13.1247C56.0931 13.5289 56.4349 13.731 56.8762 13.731C57.3088 13.731 57.6485 13.5257 57.8929 13.114C58.1027 12.7732 58.2076 12.369 58.2076 11.9014Z" fill="white"/>
<path d="M67.8794 9.37305L66.2841 14.4406H65.2457L64.5849 12.2401C64.4172 11.6907 64.281 11.1446 64.175 10.6028H64.1544C64.056 11.1597 63.9197 11.7047 63.7445 12.2401L63.0426 14.4406H61.9923L60.4922 9.37305H61.6571L62.2335 11.7821C62.3731 12.3519 62.4877 12.8947 62.5796 13.4086H62.6002C62.6846 12.985 62.8241 12.4454 63.0209 11.7929L63.7445 9.37412H64.6682L65.3615 11.7413C65.5291 12.3185 65.6654 12.8743 65.7703 13.4097H65.8017C65.8785 12.8883 65.9942 12.3325 66.1478 11.7413L66.7664 9.37412H67.8794V9.37305Z" fill="white"/>
<path d="M73.7552 14.4406H72.6217V11.5381C72.6217 10.6437 72.2799 10.1965 71.5942 10.1965C71.2578 10.1965 70.9864 10.319 70.7755 10.5652C70.5667 10.8114 70.4607 11.1016 70.4607 11.4338V14.4395H69.3272V10.821C69.3272 10.376 69.3132 9.89333 69.2861 9.37088H70.2823L70.3353 10.1631H70.3666C70.4986 9.91698 70.6954 9.7138 70.9539 9.55148C71.2611 9.36228 71.605 9.2666 71.9814 9.2666C72.4573 9.2666 72.8531 9.41925 73.1679 9.72563C73.5594 10.1008 73.7552 10.6609 73.7552 11.4048V14.4406Z" fill="white"/>
<path d="M76.88 14.4396H75.748V7.04688H76.88V14.4396Z" fill="white"/>
<path d="M83.5532 11.8648C83.5532 12.6442 83.3293 13.2828 82.8815 13.7837C82.4121 14.2986 81.7891 14.5556 81.0137 14.5556C80.2641 14.5556 79.6682 14.3094 79.2247 13.8149C78.7813 13.3215 78.5596 12.699 78.5596 11.9487C78.5596 11.1639 78.7878 10.52 79.2464 10.0201C79.705 9.52025 80.3214 9.26978 81.0969 9.26978C81.8465 9.26978 82.4467 9.51595 82.9031 10.0094C83.3358 10.4888 83.5532 11.108 83.5532 11.8648ZM82.3764 11.9014C82.3764 11.4338 82.2748 11.0328 82.0725 10.6985C81.8356 10.2943 81.496 10.0922 81.0569 10.0922C80.6005 10.0922 80.2544 10.2943 80.0175 10.6985C79.8142 11.0328 79.7136 11.4402 79.7136 11.9218C79.7136 12.3894 79.8153 12.7904 80.0175 13.1247C80.263 13.5289 80.6048 13.731 81.0461 13.731C81.4787 13.731 81.8172 13.5257 82.0617 13.114C82.2726 12.7732 82.3764 12.369 82.3764 11.9014Z" fill="white"/>
<path d="M89.0383 14.4405H88.0205L87.9361 13.8568H87.9048C87.5565 14.3223 87.06 14.5556 86.4154 14.5556C85.9341 14.5556 85.5448 14.4018 85.2516 14.0965C84.9856 13.8192 84.8525 13.4741 84.8525 13.0645C84.8525 12.4453 85.1121 11.9734 85.6345 11.6466C86.1558 11.3198 86.8892 11.1596 87.8334 11.1672V11.0726C87.8334 10.405 87.4808 10.0717 86.7745 10.0717C86.2716 10.0717 85.8281 10.1975 85.4452 10.4469L85.2149 9.7073C85.6886 9.41598 86.2737 9.26978 86.9638 9.26978C88.2963 9.26978 88.9647 9.96853 88.9647 11.366V13.2322C88.9647 13.7386 88.9896 14.1417 89.0383 14.4405ZM87.8615 12.699V11.9175C86.6112 11.896 85.986 12.2368 85.986 12.9388C85.986 13.2032 86.0574 13.401 86.2034 13.5332C86.3494 13.6655 86.5355 13.731 86.7572 13.731C87.006 13.731 87.2385 13.6526 87.4505 13.4967C87.6636 13.3397 87.7944 13.1409 87.8431 12.8968C87.855 12.842 87.8615 12.7754 87.8615 12.699Z" fill="white"/>
<path d="M95.4785 14.4396H94.4726L94.4196 13.6259H94.3882C94.067 14.2451 93.5197 14.5547 92.7507 14.5547C92.1364 14.5547 91.6248 14.3149 91.2192 13.8355C90.8136 13.356 90.6113 12.7336 90.6113 11.9693C90.6113 11.1491 90.8309 10.4847 91.2722 9.97732C91.6994 9.50432 92.2229 9.26782 92.8459 9.26782C93.5305 9.26782 94.0097 9.4968 94.2822 9.95582H94.3039V7.04688H95.4384V13.0744C95.4384 13.5678 95.4514 14.0225 95.4785 14.4396ZM94.3039 12.3025V11.4576C94.3039 11.3114 94.293 11.1931 94.2725 11.1028C94.2087 10.8319 94.0713 10.604 93.8626 10.4202C93.6517 10.2364 93.3975 10.1439 93.1044 10.1439C92.6815 10.1439 92.3505 10.3106 92.1072 10.6449C91.866 10.9792 91.7437 11.406 91.7437 11.9274C91.7437 12.4283 91.8595 12.8347 92.092 13.1475C92.3375 13.4807 92.6685 13.6474 93.0828 13.6474C93.4548 13.6474 93.7523 13.5087 93.9783 13.2303C94.1968 12.9733 94.3039 12.6637 94.3039 12.3025Z" fill="white"/>
<path d="M105.172 11.8648C105.172 12.6442 104.948 13.2828 104.501 13.7837C104.031 14.2986 103.41 14.5556 102.633 14.5556C101.885 14.5556 101.289 14.3094 100.844 13.8149C100.4 13.3215 100.179 12.699 100.179 11.9487C100.179 11.1639 100.407 10.52 100.866 10.0201C101.324 9.52025 101.941 9.26978 102.718 9.26978C103.466 9.26978 104.068 9.51595 104.522 10.0094C104.955 10.4888 105.172 11.108 105.172 11.8648ZM103.998 11.9014C103.998 11.4338 103.896 11.0328 103.694 10.6985C103.455 10.2943 103.117 10.0922 102.676 10.0922C102.222 10.0922 101.876 10.2943 101.637 10.6985C101.433 11.0328 101.333 11.4402 101.333 11.9218C101.333 12.3894 101.434 12.7904 101.637 13.1247C101.882 13.5289 102.224 13.731 102.665 13.731C103.098 13.731 103.439 13.5257 103.683 13.114C103.892 12.7732 103.998 12.369 103.998 11.9014Z" fill="white"/>
<path d="M111.266 14.4406H110.133V11.5381C110.133 10.6437 109.792 10.1965 109.105 10.1965C108.768 10.1965 108.497 10.319 108.287 10.5652C108.077 10.8114 107.972 11.1016 107.972 11.4338V14.4395H106.838V10.821C106.838 10.376 106.825 9.89333 106.798 9.37088H107.793L107.846 10.1631H107.877C108.01 9.91698 108.207 9.7138 108.465 9.55148C108.773 9.36228 109.116 9.2666 109.493 9.2666C109.968 9.2666 110.364 9.41925 110.679 9.72563C111.071 10.1008 111.266 10.6609 111.266 11.4048V14.4406V14.4406Z" fill="white"/>
<path d="M118.893 10.2168H117.645V12.6785C117.645 13.3042 117.867 13.617 118.306 13.617C118.509 13.617 118.678 13.5998 118.811 13.5643L118.84 14.4189C118.616 14.5028 118.322 14.5447 117.96 14.5447C117.512 14.5447 117.164 14.4093 116.912 14.1384C116.659 13.8675 116.533 13.4117 116.533 12.772V10.2168H115.788V9.37289H116.533V8.44409L117.644 8.11084V9.37182H118.892V10.2168H118.893Z" fill="white"/>
<path d="M124.894 14.4396H123.759V11.5586C123.759 10.6503 123.417 10.1955 122.733 10.1955C122.207 10.1955 121.848 10.4589 121.651 10.9857C121.618 11.0964 121.598 11.2318 121.598 11.3909V14.4386H120.466V7.04688H121.598V10.1009H121.62C121.977 9.54517 122.488 9.26782 123.151 9.26782C123.621 9.26782 124.009 9.42047 124.317 9.72685C124.701 10.1085 124.894 10.6761 124.894 11.4264V14.4396V14.4396Z" fill="white"/>
<path d="M131.083 11.6672C131.083 11.8693 131.068 12.0391 131.041 12.1778H127.641C127.656 12.6788 127.819 13.0604 128.133 13.3248C128.421 13.5613 128.792 13.6796 129.246 13.6796C129.749 13.6796 130.208 13.6 130.621 13.4399L130.798 14.2225C130.315 14.431 129.746 14.5353 129.087 14.5353C128.298 14.5353 127.676 14.3042 127.226 13.8419C126.774 13.3797 126.55 12.7594 126.55 11.9811C126.55 11.2168 126.759 10.5804 127.179 10.073C127.618 9.53115 128.212 9.26025 128.962 9.26025C129.695 9.26025 130.252 9.53115 130.628 10.073C130.932 10.503 131.083 11.0351 131.083 11.6672ZM130.001 11.3759C130.01 11.0415 129.935 10.7534 129.782 10.5105C129.585 10.1977 129.285 10.0407 128.88 10.0407C128.51 10.0407 128.208 10.1934 127.977 10.4997C127.789 10.7438 127.678 11.0351 127.641 11.3759H130.001Z" fill="white"/>
</svg>
