<svg width="76" height="57" viewBox="0 0 76 57" fill="none" xmlns="http://www.w3.org/2000/svg">
<path d="M62.1996 35.6687V7.8937C62.1996 4.07464 59.0946 0.949951 55.2996 0.949951H6.99961C3.20461 0.949951 0.0996094 4.07464 0.0996094 7.8937V35.6687C0.0996094 39.4878 3.20461 42.6125 6.99961 42.6125H55.2996C59.0946 42.6125 62.1996 39.4878 62.1996 35.6687ZM55.2996 35.6687H6.99961V7.8937H55.2996V35.6687ZM31.1496 11.3656C25.4226 11.3656 20.7996 16.0179 20.7996 21.7812C20.7996 27.5445 25.4226 32.1968 31.1496 32.1968C36.8766 32.1968 41.4996 27.5445 41.4996 21.7812C41.4996 16.0179 36.8766 11.3656 31.1496 11.3656ZM75.9996 11.3656V49.5562C75.9996 53.3753 72.8946 56.5 69.0996 56.5H10.4496C10.4496 53.0281 10.4496 53.3753 10.4496 49.5562H69.0996V11.3656C72.8946 11.3656 72.5496 11.3656 75.9996 11.3656Z" fill="#657FFF"/>
</svg>
