<svg width="51" height="67" viewBox="0 0 51 67" fill="none" xmlns="http://www.w3.org/2000/svg">
<path d="M44.6754 22.9H41.5129V16.6143C41.5129 7.94002 34.4289 0.900024 25.7004 0.900024C16.9719 0.900024 9.88789 7.94002 9.88789 16.6143V22.9H6.72539C3.24664 22.9 0.400391 25.7286 0.400391 29.1857V60.6143C0.400391 64.0715 3.24664 66.9 6.72539 66.9H44.6754C48.1541 66.9 51.0004 64.0715 51.0004 60.6143V29.1857C51.0004 25.7286 48.1541 22.9 44.6754 22.9ZM16.2129 16.6143C16.2129 11.3972 20.4506 7.18574 25.7004 7.18574C30.9501 7.18574 35.1879 11.3972 35.1879 16.6143V22.9H16.2129V16.6143ZM44.6754 60.6143H6.72539V29.1857H44.6754V60.6143ZM25.7004 51.1857C29.1791 51.1857 32.0254 48.3572 32.0254 44.9C32.0254 41.4429 29.1791 38.6143 25.7004 38.6143C22.2216 38.6143 19.3754 41.4429 19.3754 44.9C19.3754 48.3572 22.2216 51.1857 25.7004 51.1857Z" fill="#657FFF"/>
</svg>
