<svg width="150" height="30" viewBox="0 0 150 30" fill="none" xmlns="http://www.w3.org/2000/svg">
<path d="M9.17491 12.6056L15.0015 6.78146L20.8304 12.6104L24.2187 9.21965L15.0015 0L5.78418 9.21728L9.17491 12.6056Z" fill="white"/>
<path d="M-0.000976562 15.0005L3.38851 11.611L6.778 15.0005L3.38851 18.39L-0.000976562 15.0005Z" fill="white"/>
<path d="M9.17476 17.3945L15.0013 23.221L20.8302 17.3921L24.221 20.7781L24.2186 20.7804L15.0013 30.0001L5.78404 20.7852L5.7793 20.7804L9.17476 17.3945Z" fill="white"/>
<path d="M23.2188 15.0015L26.6082 11.612L29.9977 15.0015L26.6082 18.391L23.2188 15.0015Z" fill="white"/>
<path d="M18.4396 14.9986L15.0014 11.5581L12.459 14.1006L12.1652 14.392L11.5633 14.9939L11.5586 14.9986L11.5633 15.0057L15.0014 18.4415L18.4396 15.001L18.4419 14.9986H18.4396Z" fill="white"/>
<path d="M35.2871 7.26953H42.6609C44.4902 7.26953 45.874 7.74343 46.8123 8.69122C47.1658 9.04133 47.4445 9.45961 47.6314 9.92069C47.8184 10.3818 47.9097 10.876 47.8999 11.3735V11.4185C47.9062 11.826 47.8495 12.232 47.7316 12.6222C47.6266 12.9581 47.4743 13.2772 47.2791 13.57C47.0971 13.8461 46.8769 14.095 46.6251 14.3093C46.379 14.521 46.1095 14.7039 45.8218 14.8542C46.6515 15.1432 47.3976 15.6314 47.9946 16.2759C48.5222 16.8762 48.786 17.7055 48.786 18.7639V18.8089C48.801 19.4699 48.6572 20.1248 48.3666 20.7187C48.0851 21.2659 47.6724 21.7348 47.1653 22.0835C46.5921 22.4678 45.9538 22.7448 45.2816 22.901C44.4829 23.0904 43.6642 23.1819 42.8434 23.1735H35.2871V7.26953ZM41.9217 13.7003C42.5596 13.7311 43.1945 13.5939 43.7627 13.3022C43.9843 13.1728 44.1653 12.9839 44.285 12.7569C44.4048 12.5299 44.4586 12.274 44.4404 12.018V11.973C44.4521 11.7371 44.4042 11.5021 44.3011 11.2896C44.198 11.0772 44.043 10.8941 43.8504 10.7574C43.4571 10.4778 42.8892 10.338 42.1468 10.338H38.6968V13.7003H41.9217ZM42.8529 20.1098C43.4885 20.1454 44.1211 19.9999 44.6774 19.6904C44.8941 19.5511 45.0695 19.3564 45.1853 19.1263C45.3012 18.8963 45.3532 18.6394 45.3361 18.3824V18.3374C45.3446 18.0931 45.2931 17.8505 45.1861 17.6307C45.0792 17.4109 44.9199 17.2208 44.7224 17.0768C44.3148 16.7609 43.6561 16.6029 42.7462 16.6029H38.6968V20.1098H42.8529Z" fill="white"/>
<path d="M53.1787 7.26953H56.6784V23.1782H53.1787V7.26953Z" fill="white"/>
<path d="M61.9746 7.26953H65.2018L72.661 17.0602V7.26953H76.1157V23.1782H73.1372L65.4341 13.0653V23.1782H61.9746V7.26953Z" fill="white"/>
<path d="M86.7129 7.15576H89.9354L96.7524 23.1782H93.0987L91.6438 19.6097H84.9169L83.462 23.1782H79.8936L86.7129 7.15576ZM90.3951 16.5199L88.2768 11.3592L86.1679 16.5199H90.3951Z" fill="white"/>
<path d="M100.536 7.26953H103.763L111.218 17.0602V7.26953H114.672V23.1782H111.694L103.991 13.0653V23.1782H100.536V7.26953Z" fill="white"/>
<path d="M127.269 23.4578C126.154 23.4673 125.048 23.2513 124.018 22.8227C123.049 22.4224 122.169 21.8321 121.431 21.0866C120.694 20.3411 120.113 19.4555 119.722 18.4819C119.311 17.4635 119.102 16.3744 119.109 15.276V15.2309C119.09 13.0658 119.923 10.9801 121.428 9.42333C122.169 8.66291 123.055 8.06004 124.035 7.65096C125.1 7.20967 126.244 6.98959 127.397 7.00409C128.079 6.999 128.76 7.0601 129.43 7.18654C130.004 7.29498 130.564 7.46253 131.103 7.6865C131.592 7.89232 132.057 8.15137 132.489 8.45895C132.911 8.75894 133.307 9.09339 133.674 9.45887L131.449 12.0274C130.88 11.5029 130.243 11.0588 129.553 10.7076C128.876 10.3838 128.133 10.2216 127.383 10.2337C126.758 10.227 126.14 10.3533 125.568 10.6041C124.996 10.855 124.484 11.2246 124.066 11.6886C123.651 12.1513 123.326 12.6873 123.108 13.269C122.88 13.8838 122.765 14.5349 122.77 15.1906V15.2357C122.767 15.8905 122.882 16.5405 123.108 17.155C123.324 17.7388 123.645 18.2778 124.056 18.7449C124.471 19.2145 124.982 19.5896 125.554 19.8447C126.126 20.0998 126.747 20.229 127.373 20.2234C128.171 20.2486 128.963 20.0769 129.679 19.7235C130.36 19.3521 130.991 18.8932 131.553 18.3586L133.781 20.6097C133.387 21.0365 132.962 21.4326 132.508 21.7944C132.062 22.1469 131.578 22.4481 131.065 22.6924C130.518 22.9498 129.942 23.14 129.35 23.2587C128.665 23.396 127.968 23.4627 127.269 23.4578Z" fill="white"/>
<path d="M137.911 7.26953H149.884V10.383H141.354V13.6103H148.865V16.7238H141.366V20.0647H150.003V23.1782H137.918L137.911 7.26953Z" fill="white"/>
</svg>
