<svg width="138" height="30" viewBox="0 0 138 30" fill="none" xmlns="http://www.w3.org/2000/svg">
<path d="M9.0139 29.9762C4.50958 29.9762 0.100586 26.7381 0.100586 19.4286C0.100586 12.0953 4.50958 8.90479 9.0139 8.90479C11.2303 8.90479 12.9701 9.47621 14.2094 10.2857L12.8509 13.2619C12.0168 12.6667 10.7775 12.2857 9.53821 12.2857C6.82132 12.2857 4.34275 14.4286 4.34275 19.381C4.34275 24.3333 6.89282 26.5238 9.53821 26.5238C10.7775 26.5238 12.0168 26.1429 12.8509 25.5476L14.2094 28.5952C12.9224 29.4524 11.2303 29.9762 9.0139 29.9762Z" fill="white"/>
<path d="M24.5285 29.9762C18.7849 29.9762 15.6152 25.4286 15.6152 19.4286C15.6152 13.4286 18.7611 8.90479 24.5285 8.90479C30.2722 8.90479 33.4419 13.4048 33.4419 19.4286C33.4419 25.4286 30.2722 29.9762 24.5285 29.9762ZM24.5285 12.1667C21.335 12.1667 19.7621 15.0238 19.7621 19.381C19.7621 23.7381 21.335 26.6191 24.5285 26.6191C27.7221 26.6191 29.295 23.7381 29.295 19.381C29.295 15.0238 27.7221 12.1667 24.5285 12.1667Z" fill="white"/>
<path d="M38.9713 5.64274C37.6129 5.64274 36.5166 4.59512 36.5166 3.30941C36.5166 2.02369 37.6129 0.976074 38.9713 0.976074C40.3298 0.976074 41.426 2.02369 41.426 3.30941C41.426 4.59512 40.3059 5.64274 38.9713 5.64274ZM36.8979 9.30941H41.0447V29.5475H36.8979V9.30941Z" fill="white"/>
<path d="M57.2985 29.5476V16.0476C57.2985 13.6905 55.8685 12.2143 53.0563 12.2143C51.5548 12.2143 50.1726 12.4762 49.3384 12.8095V29.5715H45.2393V10.3334C47.265 9.50002 49.8627 8.90479 53.0325 8.90479C58.7046 8.90479 61.4453 11.381 61.4453 15.6667V29.5715H57.2985" fill="white"/>
<path d="M72.3366 29.9761C69.715 29.9761 67.1173 29.3332 65.5205 28.5475V0.0712891H69.6197V9.83319C70.5968 9.38081 72.1697 8.99986 73.5759 8.99986C78.7951 8.99986 82.3462 12.7618 82.3462 18.9522C82.3462 26.5951 78.39 29.9761 72.3366 29.9761ZM72.8609 12.2141C71.7408 12.2141 70.4061 12.4761 69.6197 12.8808V26.1665C70.2155 26.4284 71.3833 26.6903 72.5511 26.6903C75.8161 26.6903 78.2232 24.4284 78.2232 19.2618C78.247 14.8332 76.1497 12.2141 72.8609 12.2141Z" fill="white"/>
<path d="M93.4998 29.9762C87.6847 29.9762 84.7295 27.6191 84.7295 23.6191C84.7295 17.9762 90.7353 16.9762 96.8602 16.6429V15.3572C96.8602 12.8095 95.1681 11.9048 92.5704 11.9048C90.6638 11.9048 88.3282 12.5 86.9697 13.1429L85.9211 10.3334C87.5417 9.61907 90.2825 8.90479 92.9993 8.90479C97.8373 8.90479 100.793 10.7857 100.793 15.7857V28.5476C99.3388 29.3333 96.3597 29.9762 93.4998 29.9762ZM96.884 19.381C92.7372 19.5953 88.6142 19.9524 88.6142 23.5476C88.6142 25.6905 90.2586 27 93.3807 27C94.6914 27 96.2406 26.7857 96.884 26.4762V19.381Z" fill="white"/>
<path d="M110.039 29.9762C107.68 29.9762 105.201 29.3333 103.724 28.5476L105.106 25.4048C106.155 26.0476 108.371 26.7143 109.92 26.7143C112.136 26.7143 113.614 25.6191 113.614 23.9286C113.614 22.0952 112.065 21.381 110.015 20.6191C107.298 19.5953 104.272 18.3572 104.272 14.5714C104.272 11.2381 106.869 8.90479 111.374 8.90479C113.829 8.90479 115.854 9.50002 117.284 10.3334L115.997 13.1905C115.092 12.6191 113.28 12 111.827 12C109.682 12 108.49 13.1191 108.49 14.5953C108.49 16.4286 109.992 17.0714 111.993 17.8333C114.806 18.881 117.928 20.0476 117.928 24C117.904 27.5952 115.115 29.9762 110.039 29.9762Z" fill="white"/>
<path d="M137.9 19.3332L124.434 21.2142C124.839 24.857 127.223 26.6904 130.631 26.6904C132.656 26.6904 134.849 26.1904 136.231 25.4523L137.423 28.5237C135.85 29.357 133.133 29.9523 130.345 29.9523C123.958 29.9523 120.383 25.857 120.383 19.4047C120.383 13.2142 123.839 8.88086 129.511 8.88086C134.778 8.88086 137.9 12.3332 137.9 17.7856C137.947 18.2856 137.947 18.8094 137.9 19.3332ZM129.487 11.9047C126.341 11.9047 124.267 14.3094 124.196 18.5237L134.015 17.1666C133.967 13.6428 132.18 11.9047 129.487 11.9047Z" fill="white"/>
</svg>
