<svg width="34" height="34" viewBox="0 0 34 34" fill="none" xmlns="http://www.w3.org/2000/svg">
<path fill-rule="evenodd" clip-rule="evenodd" d="M17.2171 23.5734L21.2427 19.5075C21.6494 19.0825 21.6494 18.4167 21.2286 18.0059C20.8219 17.595 20.1626 17.595 19.7559 18.0059L17.5257 20.2725V13.4442C17.5257 12.8492 17.0628 12.3817 16.4877 12.3817C15.9126 12.3817 15.4357 12.8492 15.4357 13.4442V20.2725L13.2055 18.0059C12.7988 17.595 12.1395 17.595 11.7328 18.0059C11.326 18.4167 11.326 19.0825 11.7328 19.5075L15.7443 23.5734C15.8425 23.6725 15.9547 23.7434 16.0809 23.8C16.2072 23.8567 16.3474 23.885 16.4877 23.885C16.628 23.885 16.7542 23.8567 16.8805 23.8C17.0067 23.7434 17.1189 23.6725 17.2171 23.5734ZM27.3812 12.7863C27.7109 12.7825 28.0699 12.7784 28.3961 12.7784C28.7608 12.7784 29.0413 13.0617 29.0413 13.4159V24.8059C29.0413 28.3192 26.208 31.1667 22.7295 31.1667H11.5785C7.91758 31.1667 4.95801 28.1775 4.95801 24.4942V9.22254C4.95801 5.70921 7.77731 2.83337 11.2839 2.83337H18.774C19.1247 2.83337 19.4192 3.13087 19.4192 3.48504V8.04671C19.4192 10.6392 21.5232 12.7642 24.104 12.7784C24.6968 12.7784 25.2273 12.7829 25.6904 12.7868C26.0491 12.7898 26.3673 12.7925 26.6428 12.7925C26.8425 12.7925 27.1013 12.7896 27.3812 12.7863ZM27.7726 10.7187C26.6211 10.7229 25.2619 10.7187 24.2843 10.7088C22.733 10.7088 21.4552 9.41818 21.4552 7.85135V4.11702C21.4552 3.50643 22.1887 3.20327 22.6067 3.64385C23.6871 4.77736 25.341 6.5146 26.7388 7.98275C27.3045 8.57703 27.8284 9.12722 28.2552 9.57543C28.6647 10.0047 28.3646 10.7173 27.7726 10.7187Z" fill="white"/>
</svg>
