<svg width="115" height="34" viewBox="0 0 115 34" fill="none" xmlns="http://www.w3.org/2000/svg">
<g filter="url(#filter0_i_541_40419)">
<path d="M110.658 34H4.3694C2.16091 34 0.363281 32.1912 0.363281 29.9769V4.0171C0.363281 1.802 2.16091 0 4.3694 0H110.658C112.866 0 114.727 1.802 114.727 4.0171V29.9769C114.727 32.1912 112.866 34 110.658 34Z" fill="#2F4DE2"/>
</g>
<path d="M42.1041 9.78975C42.1172 10.068 42.0734 10.3461 41.9754 10.6071C41.8775 10.8681 41.7273 11.1067 41.5341 11.3084C41.3178 11.5308 41.0567 11.7053 40.768 11.8205C40.4792 11.9358 40.1692 11.9891 39.8583 11.9771C39.5434 11.9884 39.2296 11.9347 38.9366 11.8193C38.6436 11.704 38.3779 11.5295 38.1562 11.3069C37.9344 11.0844 37.7615 10.8185 37.6483 10.5262C37.5351 10.2338 37.4841 9.92135 37.4985 9.60842C37.4841 9.29549 37.5351 8.983 37.6483 8.69065C37.7615 8.39831 37.9344 8.13246 38.1562 7.9099C38.3779 7.68733 38.6436 7.51287 38.9366 7.39753C39.2296 7.28218 39.5434 7.22846 39.8583 7.23975C40.1798 7.24031 40.4979 7.30586 40.7931 7.43242C41.0716 7.54015 41.3185 7.71548 41.5113 7.94242L41.1123 8.33909C40.9596 8.15842 40.767 8.0153 40.5494 7.92093C40.3319 7.82656 40.0954 7.78349 39.8583 7.79509C39.6273 7.79288 39.3983 7.83689 39.1848 7.92451C38.9714 8.01213 38.7778 8.14156 38.6157 8.30509C38.4423 8.47441 38.3061 8.67768 38.2159 8.90203C38.1256 9.12638 38.0832 9.36692 38.0913 9.60842C38.0832 9.84992 38.1256 10.0905 38.2159 10.3148C38.3061 10.5392 38.4423 10.7424 38.6157 10.9118C38.9523 11.2392 39.4045 11.4225 39.8754 11.4225C40.3463 11.4225 40.7985 11.2392 41.1351 10.9118C41.3709 10.6619 41.5085 10.3361 41.5227 9.99375H39.8583V9.44975H42.0699C42.092 9.56176 42.1035 9.6756 42.1041 9.78975Z" fill="white"/>
<path d="M45.6035 7.89713H43.5287V9.33646H45.3983V9.88046H43.5287V11.3198H45.6035V11.8751H42.9473V7.3418H45.6035V7.89713Z" fill="white"/>
<path d="M48.0779 11.8751H47.4851V7.89713H46.2197V7.3418H49.3547V7.89713H48.0779V11.8751Z" fill="white"/>
<path d="M51.6348 11.8751V7.3418H52.2279V11.8751H51.6348Z" fill="white"/>
<path d="M54.7928 11.8751H54.2114V7.89713H52.9346V7.3418H56.0696V7.89713H54.7928V11.8751Z" fill="white"/>
<path d="M61.9972 11.2857C61.7788 11.5054 61.5187 11.6797 61.232 11.7988C60.9454 11.9178 60.6378 11.9791 60.3271 11.9791C60.0164 11.9791 59.7088 11.9178 59.4222 11.7988C59.1355 11.6797 58.8754 11.5054 58.657 11.2857C58.2113 10.8308 57.9619 10.2208 57.9619 9.58572C57.9619 8.95066 58.2113 8.34069 58.657 7.88572C58.8754 7.66607 59.1355 7.49169 59.4222 7.37268C59.7088 7.25366 60.0164 7.19238 60.3271 7.19238C60.6378 7.19238 60.9454 7.25366 61.232 7.37268C61.5187 7.49169 61.7788 7.66607 61.9972 7.88572C62.4429 8.34069 62.6923 8.95066 62.6923 9.58572C62.6923 10.2208 62.4429 10.8308 61.9972 11.2857ZM59.0902 10.9117C59.2511 11.0769 59.4444 11.2073 59.6582 11.2951C59.872 11.3828 60.1016 11.4259 60.3328 11.4217C60.5623 11.4257 60.7902 11.3825 61.002 11.2947C61.2139 11.2069 61.4052 11.0765 61.564 10.9117C61.7348 10.741 61.8685 10.5372 61.9567 10.313C62.045 10.0888 62.0859 9.84898 62.077 9.60839C62.0859 9.36779 62.045 9.12794 61.9567 8.90374C61.8685 8.67953 61.7348 8.47575 61.564 8.30505C61.4052 8.14024 61.2139 8.00985 61.002 7.92208C60.7902 7.83432 60.5623 7.79107 60.3328 7.79505C60.1016 7.79086 59.872 7.83397 59.6582 7.9217C59.4444 8.00944 59.2511 8.13992 59.0902 8.30505C58.9209 8.47631 58.789 8.68045 58.7027 8.90471C58.6164 9.12897 58.5775 9.36852 58.5886 9.60839C58.5775 9.84825 58.6164 10.0878 58.7027 10.3121C58.789 10.5363 58.9209 10.7405 59.0902 10.9117Z" fill="white"/>
<path d="M63.4902 11.8751V7.3418H64.1742L66.4542 10.8665V7.3418H67.0356V11.8751H66.4542L64.1742 8.18046V11.8751H63.4902Z" fill="white"/>
<path d="M57.8375 18.4826C57.1981 18.4849 56.5737 18.6753 56.0431 19.0298C55.5124 19.3843 55.0992 19.8871 54.8555 20.4748C54.6119 21.0625 54.5488 21.7087 54.674 22.332C54.7993 22.9553 55.1074 23.5278 55.5596 23.9772C56.0117 24.4267 56.5875 24.733 57.2145 24.8576C57.8414 24.9821 58.4915 24.9193 59.0826 24.6771C59.6737 24.4349 60.1795 24.0241 60.5361 23.4966C60.8927 22.969 61.0842 22.3483 61.0865 21.7126C61.0958 21.2859 61.0182 20.8618 60.8582 20.4657C60.6982 20.0696 60.4592 19.7098 60.1557 19.408C59.8521 19.1062 59.4902 18.8686 59.0918 18.7096C58.6934 18.5506 58.2667 18.4734 57.8375 18.4826ZM57.8375 23.6393C57.443 23.6759 57.0466 23.5929 56.7005 23.4011C56.3544 23.2094 56.0749 22.9179 55.8988 22.5651C55.7226 22.2123 55.6581 21.8147 55.7137 21.4247C55.7694 21.0347 55.9425 20.6707 56.2104 20.3804C56.4783 20.0902 56.8283 19.8875 57.2144 19.799C57.6004 19.7104 58.0044 19.7402 58.3731 19.8845C58.7418 20.0287 59.0579 20.2806 59.2797 20.6069C59.5016 20.9333 59.6188 21.3188 59.6159 21.7126C59.6345 22.2019 59.4581 22.6787 59.1251 23.0395C58.7921 23.4002 58.3294 23.6158 57.8375 23.6393ZM50.7694 18.4826C50.1296 18.4826 49.5041 18.6711 48.9719 19.0243C48.4397 19.3775 48.0248 19.8795 47.7794 20.467C47.534 21.0544 47.4692 21.701 47.5932 22.3251C47.7172 22.9491 48.0244 23.5227 48.4761 23.9732C48.9277 24.4238 49.5036 24.7313 50.1308 24.8567C50.7581 24.9822 51.4087 24.9201 52.0005 24.6782C52.5923 24.4363 53.0988 24.0255 53.4559 23.4977C53.813 22.9699 54.0048 22.3487 54.0071 21.7126C54.0163 21.2869 53.939 20.8637 53.7797 20.4684C53.6205 20.0731 53.3825 19.7138 53.0802 19.4122C52.7778 19.1105 52.4173 18.8727 52.0202 18.713C51.6231 18.5533 51.1977 18.4749 50.7694 18.4826ZM50.7694 23.6393C50.376 23.6666 49.9834 23.5754 49.6429 23.3775C49.3025 23.1795 49.0299 22.8841 48.861 22.5298C48.692 22.1755 48.6344 21.7788 48.6958 21.3915C48.7571 21.0042 48.9345 20.6442 49.2049 20.3587C49.4752 20.0732 49.8258 19.8753 50.211 19.791C50.5962 19.7067 50.998 19.7398 51.3639 19.886C51.7299 20.0322 52.043 20.2848 52.2623 20.6106C52.4817 20.9365 52.5971 21.3206 52.5934 21.7126C52.6026 21.9586 52.5625 22.2039 52.4754 22.4344C52.3884 22.6648 52.2562 22.8758 52.0866 23.055C51.9169 23.2343 51.7131 23.3782 51.4869 23.4785C51.2608 23.5788 51.017 23.6335 50.7694 23.6393ZM42.3562 19.446V20.806H45.628C45.5829 21.4467 45.3218 22.0536 44.887 22.5286C44.5563 22.8583 44.1611 23.1169 43.7257 23.2884C43.2904 23.46 42.8242 23.5408 42.3562 23.526C41.3887 23.526 40.4608 23.1439 39.7766 22.4637C39.0925 21.7836 38.7082 20.8612 38.7082 19.8993C38.7082 18.9375 39.0925 18.015 39.7766 17.3349C40.4608 16.6547 41.3887 16.2726 42.3562 16.2726C42.8112 16.264 43.2634 16.3458 43.6862 16.5132C44.1091 16.6806 44.494 16.9301 44.8186 17.2473L45.7876 16.284C45.3382 15.8405 44.8041 15.4907 44.2168 15.2552C43.6295 15.0197 43.0008 14.9032 42.3676 14.9126C41.0373 14.9126 39.7614 15.438 38.8207 16.3732C37.88 17.3084 37.3516 18.5768 37.3516 19.8993C37.3516 21.2219 37.88 22.4902 38.8207 23.4254C39.7614 24.3606 41.0373 24.886 42.3676 24.886C42.9858 24.9227 43.6049 24.8305 44.1853 24.6155C44.7656 24.4005 45.2943 24.0673 45.7376 23.6373C46.1808 23.2073 46.5289 22.69 46.7593 22.1185C46.9898 21.547 47.0976 20.934 47.0758 20.3186C47.0719 20.0243 47.0336 19.7315 46.9618 19.446H42.3562ZM76.773 20.5793C76.5756 19.999 76.2045 19.4925 75.7093 19.1279C75.2141 18.7633 74.6187 18.5579 74.0028 18.5393C73.596 18.5495 73.1954 18.64 72.8242 18.8056C72.453 18.9713 72.1187 19.2087 71.8407 19.504C71.5628 19.7994 71.3467 20.1467 71.2051 20.5259C71.0635 20.9051 70.9992 21.3085 71.0159 21.7126C71.0067 22.135 71.0831 22.5548 71.2404 22.9472C71.3977 23.3396 71.6327 23.6966 71.9316 23.9968C72.2304 24.2971 72.587 24.5346 72.98 24.6951C73.373 24.8556 73.7945 24.936 74.2194 24.9313C74.7517 24.9333 75.2762 24.8039 75.7457 24.5547C76.2153 24.3054 76.6153 23.9442 76.9098 23.5033L75.7698 22.778C75.602 23.0487 75.3672 23.2722 75.0878 23.427C74.8083 23.5818 74.4936 23.6627 74.1738 23.662C73.8452 23.6737 73.5207 23.587 73.2422 23.4132C72.9637 23.2395 72.7442 22.9866 72.612 22.6873L76.9326 20.9193L76.773 20.5793ZM72.3611 21.656C72.3457 21.4225 72.3774 21.1883 72.4543 20.9671C72.5312 20.7459 72.6518 20.5423 72.809 20.3681C72.9662 20.1939 73.1568 20.0526 73.3696 19.9527C73.5824 19.8527 73.8132 19.796 74.0484 19.786C74.295 19.7669 74.5417 19.8214 74.757 19.9425C74.9723 20.0637 75.1463 20.2459 75.2568 20.466L72.3611 21.656ZM68.8499 24.716H70.2749V15.2753H68.8499V24.716ZM66.5699 19.1966C66.3524 18.9666 66.089 18.7842 65.7965 18.6613C65.504 18.5383 65.1888 18.4775 64.8713 18.4826C64.0473 18.5313 63.2732 18.891 62.7071 19.4882C62.141 20.0854 61.8257 20.875 61.8257 21.6956C61.8257 22.5162 62.141 23.3058 62.7071 23.9031C63.2732 24.5003 64.0473 24.86 64.8713 24.9086C65.1722 24.9008 65.4682 24.8313 65.7409 24.7045C66.0135 24.5778 66.2569 24.3965 66.4559 24.172V24.6366C66.4559 25.872 65.7947 26.5293 64.7345 26.5293C64.3805 26.5219 64.0366 26.4103 63.7464 26.2085C63.4563 26.0068 63.2328 25.724 63.1043 25.396L61.8959 25.8946C62.1281 26.4581 62.5248 26.9396 63.0348 27.2769C63.5448 27.6143 64.1448 27.792 64.7573 27.7873C66.4217 27.7873 67.8239 26.8126 67.8239 24.444V18.6753H66.5243L66.5699 19.1966ZM64.8941 23.6393C64.4014 23.6019 63.941 23.3809 63.6052 23.0205C63.2693 22.6601 63.0827 22.1869 63.0827 21.6956C63.0827 21.2044 63.2693 20.7312 63.6052 20.3708C63.941 20.0104 64.4014 19.7894 64.8941 19.752C65.1389 19.7633 65.3788 19.8236 65.5996 19.9292C65.8205 20.0347 66.0176 20.1835 66.1794 20.3665C66.3411 20.5495 66.4641 20.763 66.541 20.9943C66.6179 21.2256 66.6471 21.4699 66.6269 21.7126C66.6439 21.953 66.6122 22.1943 66.5337 22.4223C66.4552 22.6503 66.3316 22.8603 66.17 23.04C66.0084 23.2196 65.8123 23.3652 65.5931 23.4681C65.374 23.5711 65.1363 23.6293 64.8941 23.6393ZM83.4192 15.2753H79.9992V24.716H81.4128V21.1346H83.3964C83.7988 21.1595 84.2021 21.1022 84.5814 20.9663C84.9607 20.8303 85.3079 20.6185 85.6017 20.344C85.8955 20.0696 86.1297 19.7382 86.2898 19.3703C86.4498 19.0024 86.5324 18.6058 86.5324 18.205C86.5324 17.8041 86.4498 17.4076 86.2898 17.0397C86.1297 16.6718 85.8955 16.3404 85.6017 16.0659C85.3079 15.7914 84.9607 15.5797 84.5814 15.4437C84.2021 15.3077 83.7988 15.2504 83.3964 15.2753H83.4192ZM83.4192 19.8086H81.4356V16.59H83.4534C83.6782 16.5712 83.9044 16.5991 84.1178 16.6717C84.3312 16.7444 84.5271 16.8603 84.6931 17.0121C84.8592 17.1639 84.9917 17.3483 85.0823 17.5536C85.173 17.7589 85.2198 17.9807 85.2198 18.205C85.2198 18.4292 85.173 18.651 85.0823 18.8563C84.9917 19.0617 84.8592 19.2461 84.6931 19.3979C84.5271 19.5497 84.3312 19.6656 84.1178 19.7382C83.9044 19.8109 83.6782 19.8387 83.4534 19.82L83.4192 19.8086ZM92.1859 18.46C91.6685 18.4269 91.1529 18.5457 90.7029 18.8016C90.253 19.0575 89.8886 19.4392 89.655 19.8993L90.909 20.4206C91.0356 20.1931 91.2256 20.0069 91.4562 19.8842C91.6867 19.7615 91.948 19.7078 92.2086 19.7293C92.5682 19.6945 92.927 19.8024 93.2068 20.0296C93.4866 20.2568 93.6646 20.5848 93.7021 20.942V21.044C93.2453 20.8044 92.7365 20.6799 92.2201 20.6813C90.8634 20.6813 89.484 21.418 89.484 22.8006C89.4951 23.0967 89.5669 23.3874 89.695 23.6549C89.8231 23.9224 90.0047 24.1611 90.2289 24.3563C90.453 24.5516 90.7149 24.6993 90.9985 24.7903C91.2821 24.8814 91.5814 24.914 91.8781 24.886C92.2323 24.9078 92.5859 24.8353 92.9025 24.6759C93.2192 24.5165 93.4873 24.276 93.6793 23.9793H93.7363V24.7046H95.1043V21.078C95.1097 20.7115 95.0367 20.3481 94.8901 20.0119C94.7434 19.6756 94.5265 19.3742 94.2538 19.1277C93.981 18.8812 93.6586 18.6951 93.3079 18.582C92.9573 18.4688 92.5865 18.4311 92.2201 18.4713L92.1859 18.46ZM92.0149 23.628C91.5474 23.628 90.8748 23.4013 90.8748 22.8233C90.8748 22.2453 91.6842 21.8146 92.3797 21.8146C92.8335 21.8042 93.2819 21.9137 93.6793 22.132C93.6311 22.5344 93.4408 22.9069 93.1423 23.1829C92.8437 23.4589 92.4563 23.6207 92.049 23.6393L92.0149 23.628ZM99.9949 18.664L98.3647 22.7553L96.6775 18.664H95.1955L97.7263 24.3873L96.2899 27.5606H97.7605L101.659 18.664H99.9949ZM87.318 24.716H88.7316V15.2753H87.318V24.716Z" fill="white"/>
<path d="M30.1576 15.7741L15.8392 7.63673C15.5974 7.49498 15.3218 7.42059 15.0412 7.42139H14.7448C14.5641 7.45657 14.3907 7.5217 14.2318 7.61406C13.9879 7.75404 13.7856 7.95569 13.6454 8.19853C13.5053 8.44137 13.4322 8.71676 13.4337 8.99673V25.3054C13.4285 25.6787 13.5578 26.0416 13.7982 26.3285C14.0387 26.6153 14.3744 26.8072 14.7448 26.8694H15.0412C15.3218 26.8702 15.5974 26.7958 15.8392 26.6541L30.1576 18.5167C30.3963 18.3812 30.596 18.1871 30.7377 17.953C30.8794 17.7188 30.9584 17.4525 30.967 17.1794C30.9662 16.8985 30.891 16.6229 30.7489 16.3801C30.6068 16.1374 30.4029 15.9362 30.1576 15.7967V15.7741ZM24.4576 14.1534L23.0668 16.0461L19.4872 11.2861L24.4576 14.1534ZM29.428 17.3381L19.4188 23.0047L25.723 14.9127L29.4622 17.0434C29.4946 17.0593 29.5222 17.0833 29.5422 17.1132C29.5622 17.143 29.5739 17.1776 29.5762 17.2134C29.576 17.2511 29.5652 17.2881 29.545 17.3201C29.5249 17.3521 29.4963 17.3779 29.4622 17.3947L29.428 17.3381Z" fill="white"/>
<defs>
<filter id="filter0_i_541_40419" x="0.363281" y="0" width="114.363" height="34" filterUnits="userSpaceOnUse" color-interpolation-filters="sRGB">
<feFlood flood-opacity="0" result="BackgroundImageFix"/>
<feBlend mode="normal" in="SourceGraphic" in2="BackgroundImageFix" result="shape"/>
<feColorMatrix in="SourceAlpha" type="matrix" values="0 0 0 0 0 0 0 0 0 0 0 0 0 0 0 0 0 0 127 0" result="hardAlpha"/>
<feOffset/>
<feGaussianBlur stdDeviation="20"/>
<feComposite in2="hardAlpha" operator="arithmetic" k2="-1" k3="1"/>
<feColorMatrix type="matrix" values="0 0 0 0 0.791667 0 0 0 0 0.791667 0 0 0 0 0.791667 0 0 0 0.1 0"/>
<feBlend mode="normal" in2="shape" result="effect1_innerShadow_541_40419"/>
</filter>
</defs>
</svg>
