<svg width="100" height="30" viewBox="0 0 100 30" fill="none" xmlns="http://www.w3.org/2000/svg">
<g clip-path="url(#clip0_541_40289)">
<path d="M37.1334 7.47787V15.9428H28.721V8.57094C28.721 7.96509 28.2294 7.47363 27.6233 7.47363H24.7754V27.7377C24.7754 28.3436 25.267 28.835 25.873 28.835H28.721V19.383H37.1377V27.7335C37.1292 28.3393 37.6123 28.8393 38.2183 28.8477H38.2353H41.0832V8.57094C41.0832 7.96509 40.5916 7.47363 39.9856 7.47363H37.1334V7.47787ZM53.8396 12.7737V22.9291C53.8481 23.8527 53.365 24.7127 52.5682 25.1872C50.339 26.4752 48.0293 24.861 48.0293 22.7427V13.871C48.0293 13.2652 47.5377 12.7737 46.9317 12.7737H44.0837V23.107C44.0922 26.4371 46.7876 29.1316 50.1187 29.1486H51.7376C55.0729 29.1401 57.7767 26.4371 57.7852 23.1028V13.871C57.7852 13.2652 57.2936 12.7737 56.6876 12.7737H53.8396Z" fill="white"/>
<path d="M96.9277 28.8479H99.7756V14.4601C99.7756 13.8542 99.284 13.3628 98.678 13.3628H95.8301V27.7421C95.8259 28.348 96.3132 28.8436 96.9193 28.8479H96.9277Z" fill="white"/>
<path d="M99.8358 10.485C100.301 9.36301 99.7678 8.07671 98.6454 7.61196C97.5231 7.14721 96.2364 7.68001 95.7715 8.80198C95.3066 9.92396 95.8395 11.2102 96.9619 11.675C98.0842 12.1397 99.3709 11.607 99.8358 10.485Z" fill="white"/>
<path d="M67.9652 12.7651C63.8331 12.7651 60.4512 15.7181 60.4512 19.8489V22.0816C60.4512 26.2124 63.8331 29.1484 67.9652 29.1484C72.0972 29.1484 75.4792 26.2124 75.4792 22.0816V19.8489C75.4834 15.7181 72.1015 12.7651 67.9652 12.7651ZM71.5166 22.3485C71.5166 24.3017 69.9189 25.6023 67.9609 25.6023C66.003 25.6023 64.4095 24.3017 64.4095 22.3485V19.5608C64.4095 17.6077 66.0072 16.307 67.9609 16.307C69.9147 16.307 71.5166 17.6077 71.5166 19.5608V22.3485Z" fill="white"/>
<path d="M85.6589 12.7651C84.4214 12.7566 83.2008 13.0362 82.0862 13.5743V8.59193C82.0862 7.98609 81.5946 7.49463 80.9886 7.49463H78.1406V22.0816C78.1406 26.2123 81.5226 29.1484 85.6546 29.1484C89.7867 29.1484 93.1686 26.2123 93.1686 22.0816V19.8488C93.1729 15.7181 89.7994 12.7651 85.6589 12.7651ZM89.2146 22.3485C89.2146 24.3016 87.6168 25.6023 85.6589 25.6023C83.7051 25.6023 82.1074 24.3016 82.1074 22.3485V19.5607C82.1074 17.6076 83.7051 16.307 85.6589 16.307C87.6126 16.307 89.2146 17.6076 89.2146 19.5607V22.3485Z" fill="white"/>
<path d="M12.8541 9.22686C12.8541 4.92238 10.7563 1.21527 9.15854 0.0120491C9.15854 0.0120491 9.03563 -0.0557379 9.04835 0.117966C8.91697 8.43459 4.66625 10.6885 2.33111 13.722C-3.05963 20.7295 1.94969 28.4106 7.06073 29.8299C9.90866 30.6264 6.3996 28.4233 5.94613 23.7757C5.39095 18.1663 12.8541 13.8787 12.8541 9.22686Z" fill="white"/>
<path d="M15.2992 12.0616C15.2653 12.0404 15.2187 12.0235 15.1891 12.0786C15.1001 13.125 14.0321 15.362 12.6759 17.421C8.07768 24.3946 10.6968 27.7586 12.1716 29.5676C13.0277 30.6141 12.1716 29.5676 14.3075 28.4957C16.9478 26.8943 18.66 24.1235 18.9143 21.0476C19.3338 16.0907 16.3587 12.9683 15.2992 12.0616Z" fill="white"/>
</g>
<defs>
<clipPath id="clip0_541_40289">
<rect width="100" height="30" fill="white"/>
</clipPath>
</defs>
</svg>
