<svg width="12" height="12" viewBox="0 0 12 12" fill="none" xmlns="http://www.w3.org/2000/svg">
<g clip-path="url(#clip0_541_39684)">
<path d="M7.32187 4.67729C7.17972 4.5343 7.02211 4.40755 6.85196 4.29936C6.40129 4.01077 5.87737 3.85743 5.34222 3.85743C4.59946 3.85604 3.88687 4.15116 3.36258 4.67729L0.819033 7.22283C0.295627 7.74724 0.00144581 8.45777 0.000977142 9.19868C-7.05605e-06 10.7448 1.25255 11.999 2.79868 12C3.54029 12.0025 4.25222 11.7088 4.77633 11.1841L6.87595 9.08449C6.9141 9.04667 6.9354 8.99507 6.9351 8.94136C6.93447 8.83092 6.84441 8.74192 6.73397 8.74255H6.65399C6.21532 8.7441 5.78056 8.65985 5.37423 8.4946C5.29936 8.46379 5.21331 8.48118 5.15628 8.53859L3.64654 10.0503C3.17773 10.5191 2.41765 10.5191 1.94885 10.0503C1.48004 9.58151 1.48004 8.82143 1.94885 8.35262L4.5024 5.80108C4.97083 5.33323 5.72967 5.33323 6.1981 5.80108C6.51379 6.09819 7.00622 6.09819 7.32189 5.80108C7.45771 5.66514 7.54005 5.48485 7.55385 5.29316C7.56845 5.0641 7.48398 4.83978 7.32187 4.67729Z" fill="white"/>
<path d="M11.1789 0.819995C10.0856 -0.273332 8.31293 -0.273332 7.2196 0.819995L5.12197 2.91561C5.06437 2.97349 5.04776 3.06055 5.07998 3.13558C5.11183 3.21082 5.18625 3.25912 5.26794 3.25755H5.34192C5.78007 3.25675 6.21413 3.34165 6.61969 3.50751C6.69456 3.53833 6.7806 3.52094 6.83764 3.46353L8.34337 1.95979C8.81218 1.49098 9.57226 1.49098 10.0411 1.95979C10.5099 2.4286 10.5099 3.18868 10.0411 3.65749L8.1654 5.53114L8.14939 5.54914L7.49352 6.20103C7.02508 6.66887 6.26624 6.66887 5.79781 6.20103C5.48212 5.90392 4.98969 5.90392 4.67402 6.20103C4.53734 6.338 4.45492 6.51986 4.44206 6.71293C4.42743 6.94199 4.51191 7.16632 4.67402 7.32883C4.90547 7.56126 5.17627 7.75081 5.47387 7.88872C5.51586 7.90871 5.55786 7.92471 5.59985 7.94271C5.64184 7.9607 5.68583 7.97469 5.72782 7.9907C5.76981 8.0067 5.81379 8.02069 5.85579 8.03269L5.97377 8.06468C6.05375 8.08467 6.13375 8.10067 6.21572 8.11466C6.31447 8.12933 6.41392 8.13868 6.51368 8.14266H6.65364H6.66564L6.78562 8.12867C6.8296 8.12668 6.8756 8.11668 6.9276 8.11668H6.99558L7.13356 8.09669L7.19755 8.08469L7.31352 8.06069H7.33553C7.82671 7.93732 8.27523 7.683 8.63329 7.32482L11.1788 4.77928C12.2722 3.68596 12.2722 1.91332 11.1789 0.819995Z" fill="white"/>
</g>
<defs>
<clipPath id="clip0_541_39684">
<rect width="12" height="12" fill="white"/>
</clipPath>
</defs>
</svg>
