<svg width="84" height="26" viewBox="0 0 84 26" fill="none" xmlns="http://www.w3.org/2000/svg">
<path d="M0 0.312922C2.02433 0.312922 4.02917 0.293459 6.0535 0.374093C7.63788 4.47806 10.4252 8.13992 11.1269 12.5664C11.8898 8.16217 14.4961 4.37796 16.2197 0.312922C17.9823 0.312922 19.7477 0.31292 21.5103 0.293457C19.0627 5.07863 16.5761 9.82211 14.0701 14.5684C13.7304 15.269 13.3099 15.9586 13.3489 16.7927C13.3099 19.6955 13.3684 22.5983 13.3489 25.5206H8.40083C8.32008 22.4371 8.54006 19.3535 8.30059 16.2922C5.6943 10.9037 2.78728 5.61805 0 0.312922ZM28.8084 7.33915C31.838 6.71911 35.4049 7.23906 37.471 9.72201C39.5371 12.205 39.7961 15.5888 39.4563 18.6501C39.1779 21.4528 37.5072 24.236 34.8034 25.2982C31.4147 26.6189 26.9846 26.1573 24.5788 23.2156C22.3929 20.3323 22.2342 16.3701 23.0556 12.9863C23.6961 10.203 25.9822 7.86188 28.8084 7.33915ZM29.8916 11.2652C28.0483 11.8213 27.6055 13.9455 27.4858 15.6082C27.3855 17.5101 27.5053 19.7122 28.878 21.1525C30.3817 22.754 33.3889 22.134 34.1519 20.0931C34.9808 17.8006 34.966 15.2884 34.1101 13.0057C33.5421 11.343 31.476 10.584 29.8916 11.2652Z" fill="white"/>
<path d="M42.9039 0.513026C46.4123 0.112639 49.9821 -0.187651 53.5295 0.234979C55.3534 0.47688 57.2775 1.06912 58.5416 2.5372C60.0647 4.20548 60.1065 6.74126 59.377 8.7849C58.7755 10.4671 57.1327 11.3457 55.7293 12.2466C57.1522 12.8027 58.756 13.3588 59.6276 14.749C61.6937 17.9521 60.4629 22.779 56.9823 24.4194C52.6301 26.5826 47.579 25.8097 42.9261 25.3815C42.8036 17.0901 42.9039 8.80159 42.9039 0.513026ZM47.7767 4.29724C47.6542 6.49936 47.6542 8.72095 47.7155 10.9231C49.7593 10.8842 52.1066 11.0843 53.73 9.56343C55.3144 8.42066 55.1724 5.57903 53.3095 4.79772C51.5859 3.97748 49.6201 4.3306 47.7767 4.29724ZM47.696 14.8268C47.6774 17.0512 47.6774 19.2756 47.696 21.5C49.9013 21.6001 52.4296 22.0004 54.312 20.5796C55.9353 19.4174 55.9353 16.5535 54.131 15.5748C52.1651 14.5071 49.84 14.8964 47.696 14.8268ZM65.2773 0.332293C66.9814 -0.501846 69.688 0.254442 69.908 2.37594C69.9692 5.1564 65.6588 5.95995 64.2554 3.79675C63.4535 2.66232 64.016 0.893946 65.2773 0.332293ZM74.2406 4.22494C75.8222 3.80509 77.3871 3.36578 78.9743 2.92369C78.9743 4.48631 78.9938 6.02668 78.9938 7.56984C80.4584 7.56984 81.9398 7.5893 83.4044 7.64769C83.385 8.92949 83.3655 10.2113 83.3432 11.4736C81.9008 11.4931 80.4362 11.4931 78.9938 11.4931C79.094 14.5766 78.7153 17.6796 79.2138 20.7409C79.7707 22.462 81.9203 21.4833 83.165 21.322C83.4434 22.5232 83.7219 23.7243 84.0003 24.906C81.6753 25.7263 79.0495 26.5076 76.6437 25.5455C74.973 24.9255 74.3576 23.0626 74.2768 21.461C74.0569 18.1578 74.2379 14.8352 74.1961 11.5125C73.3747 11.5125 72.5922 11.5125 71.7708 11.532C71.7095 10.2113 71.7095 8.91002 71.7095 7.5893C72.5449 7.56984 73.3552 7.56984 74.1766 7.5476C74.1989 6.43819 74.1989 5.31766 74.2462 4.2166L74.2406 4.22494ZM64.4949 7.5893C66.0988 7.56984 67.6831 7.56984 69.287 7.5893V25.5177H64.5005L64.4949 7.5893Z" fill="#EEEEEE"/>
</svg>
