<svg width="280" height="280" viewBox="0 0 280 280" fill="none" xmlns="http://www.w3.org/2000/svg">
<path d="M31.5142 144.129C10.5047 123.094 0 112.576 0 99.5059C0 86.436 10.5047 75.9181 31.5142 54.8824L33.21 53.1845C54.2194 32.1487 64.7242 21.6309 77.7778 21.6309C90.8314 21.6309 101.336 32.1487 122.346 53.1844L124.041 54.8824C145.051 75.9181 155.556 86.436 155.556 99.5059C155.556 112.576 145.051 123.094 124.041 144.129L122.346 145.827C101.336 166.863 90.8314 177.381 77.7778 177.381C64.7242 177.381 54.2195 166.863 33.21 145.827L31.5142 144.129Z" fill="url(#paint0_linear_1363_39024)"/>
<g filter="url(#filter0_b_1363_39024)">
<path fill-rule="evenodd" clip-rule="evenodd" d="M152.598 26.1008C154.568 26.0029 156.542 26.0029 158.512 26.1008C166.117 26.4789 173.119 28.6914 180.924 32.3181C188.523 35.8487 197.353 40.9529 208.523 47.4104L209.156 47.776C220.326 54.2334 229.156 59.3377 236.009 64.1612C243.049 69.116 248.463 74.0809 252.593 80.4864C253.663 82.1457 254.65 83.8571 255.55 85.6143C259.026 92.3979 260.613 99.5754 261.379 108.157C262.124 116.511 262.124 126.719 262.124 139.634V140.366C262.124 153.28 262.124 163.489 261.379 171.843C260.613 180.425 259.026 187.602 255.55 194.386C254.65 196.143 253.663 197.854 252.593 199.514C248.463 205.919 243.049 210.884 236.009 215.839C229.156 220.662 220.327 225.766 209.156 232.224L208.523 232.589C197.353 239.047 188.523 244.151 180.924 247.682C173.119 251.309 166.117 253.521 158.512 253.899C156.542 253.997 154.568 253.997 152.598 253.899C144.993 253.521 137.991 251.309 130.186 247.682C122.587 244.151 113.758 239.047 102.587 232.589L101.954 232.223C90.7841 225.767 81.9536 220.662 75.1009 215.839C68.0614 210.884 62.6468 205.919 58.5172 199.514C57.4474 197.854 56.4606 196.143 55.5603 194.386C52.0847 187.602 50.4976 180.425 49.7318 171.843C48.9862 163.489 48.9863 153.281 48.9863 140.366V139.634C48.9863 126.719 48.9862 116.511 49.7318 108.157C50.4976 99.5754 52.0847 92.3979 55.5603 85.6143C56.4606 83.8571 57.4474 82.1457 58.5172 80.4864C62.6468 74.0809 68.0614 69.116 75.1009 64.1612C81.954 59.3377 90.7837 54.2336 101.954 47.7762L102.587 47.4104C113.758 40.9529 122.587 35.8487 130.186 32.3181C137.991 28.6914 144.993 26.4789 152.598 26.1008Z" fill="#2F4DE2" fill-opacity="0.35"/>
<path d="M158.537 25.6014C156.55 25.5027 154.56 25.5027 152.573 25.6014C144.881 25.9838 137.814 28.2224 129.975 31.8646C122.356 35.4046 113.511 40.518 102.357 46.966L102.337 46.9775L101.704 47.3433L101.684 47.3548C90.5301 53.8026 81.6845 58.916 74.8131 63.7524C67.7433 68.7285 62.2736 73.737 58.0969 80.2155C57.0182 81.8887 56.0231 83.6144 55.1153 85.3863C51.6001 92.2472 50.0028 99.4941 49.2337 108.112C48.4862 116.489 48.4863 126.715 48.4863 139.611L48.4863 139.634V140.366L48.4863 140.389C48.4863 153.285 48.4862 163.511 49.2337 171.888C50.0028 180.506 51.6001 187.753 55.1153 194.614C56.0231 196.386 57.0182 198.111 58.0969 199.784C62.2736 206.263 67.7433 211.271 74.8131 216.248C81.6842 221.084 90.531 226.198 101.685 232.645L101.704 232.656L102.337 233.022L102.356 233.034C113.511 239.482 122.356 244.595 129.975 248.135C137.814 251.778 144.881 254.016 152.573 254.399C154.56 254.497 156.55 254.497 158.537 254.399C166.229 254.016 173.296 251.778 181.135 248.135C188.754 244.595 197.6 239.482 208.754 233.034L208.774 233.022L209.406 232.656L209.423 232.647C220.579 226.198 229.425 221.084 236.297 216.248C243.367 211.271 248.837 206.263 253.013 199.784C254.092 198.111 255.087 196.386 255.995 194.614C259.51 187.753 261.107 180.506 261.877 171.888C262.624 163.511 262.624 153.284 262.624 140.388V140.366V139.634V139.611C262.624 126.715 262.624 116.489 261.877 108.112C261.107 99.4941 259.51 92.2472 255.995 85.3863C255.087 83.6144 254.092 81.8887 253.013 80.2155C248.837 73.737 243.367 68.7285 236.297 63.7524C229.426 58.916 220.58 53.8025 209.426 47.3547L209.406 47.3431L208.773 46.9775L208.754 46.9661C197.599 40.5181 188.754 35.4047 181.135 31.8646C173.296 28.2224 166.229 25.9838 158.537 25.6014Z" stroke="url(#paint1_linear_1363_39024)" stroke-linecap="round"/>
</g>
<g filter="url(#filter1_d_1363_39024)">
<path fill-rule="evenodd" clip-rule="evenodd" d="M135.12 92.005C140.084 90.6733 145.872 90.6752 154.355 90.678H156.757C165.239 90.6752 171.027 90.6733 175.991 92.005C189.411 95.6054 199.894 106.101 203.49 119.538C204.82 124.508 204.818 130.304 204.815 138.797V141.201C204.818 149.695 204.82 155.49 203.49 160.46C199.894 173.897 189.411 184.393 175.991 187.993C171.027 189.325 165.239 189.323 156.757 189.32H154.355C145.872 189.323 140.084 189.325 135.12 187.993C121.7 184.393 111.217 173.897 107.622 160.46C106.291 155.49 106.293 149.695 106.296 141.201V138.797C106.293 130.304 106.291 124.508 107.622 119.538C111.217 106.101 121.7 95.6054 135.12 92.005ZM139.146 107.049C141.864 106.32 145.411 106.253 155.556 106.253C165.701 106.253 169.247 106.32 171.965 107.049C180.017 109.21 186.307 115.507 188.464 123.569C189.193 126.29 189.259 129.842 189.259 139.999C189.259 150.157 189.193 153.708 188.464 156.429C186.307 164.491 180.017 170.789 171.965 172.949C169.247 173.678 165.701 173.745 155.556 173.745C145.411 173.745 141.864 173.678 139.146 172.949C131.094 170.789 124.805 164.491 122.647 156.429C121.919 153.708 121.852 150.157 121.852 139.999C121.852 129.842 121.919 126.29 122.647 123.569C124.805 115.507 131.094 109.21 139.146 107.049Z" fill="url(#paint2_linear_1363_39024)"/>
</g>
<defs>
<filter id="filter0_b_1363_39024" x="23.9863" y="1.02734" width="263.138" height="277.945" filterUnits="userSpaceOnUse" color-interpolation-filters="sRGB">
<feFlood flood-opacity="0" result="BackgroundImageFix"/>
<feGaussianBlur in="BackgroundImage" stdDeviation="12"/>
<feComposite in2="SourceAlpha" operator="in" result="effect1_backgroundBlur_1363_39024"/>
<feBlend mode="normal" in="SourceGraphic" in2="effect1_backgroundBlur_1363_39024" result="shape"/>
</filter>
<filter id="filter1_d_1363_39024" x="103.04" y="87.4219" width="111.543" height="111.666" filterUnits="userSpaceOnUse" color-interpolation-filters="sRGB">
<feFlood flood-opacity="0" result="BackgroundImageFix"/>
<feColorMatrix in="SourceAlpha" type="matrix" values="0 0 0 0 0 0 0 0 0 0 0 0 0 0 0 0 0 0 127 0" result="hardAlpha"/>
<feOffset dx="3.25583" dy="3.25583"/>
<feGaussianBlur stdDeviation="3.25583"/>
<feColorMatrix type="matrix" values="0 0 0 0 0.8 0 0 0 0 0.156863 0 0 0 0 0.32549 0 0 0 0.5 0"/>
<feBlend mode="normal" in2="BackgroundImageFix" result="effect1_dropShadow_1363_39024"/>
<feBlend mode="normal" in="SourceGraphic" in2="effect1_dropShadow_1363_39024" result="shape"/>
</filter>
<linearGradient id="paint0_linear_1363_39024" x1="6.25098e-07" y1="177.381" x2="159.06" y2="25.296" gradientUnits="userSpaceOnUse">
<stop stop-color="#2F4DE2"/>
<stop offset="1" stop-color="#2F4DE2"/>
</linearGradient>
<linearGradient id="paint1_linear_1363_39024" x1="48.9863" y1="26.0273" x2="276.518" y2="238.563" gradientUnits="userSpaceOnUse">
<stop stop-color="white" stop-opacity="0.25"/>
<stop offset="1" stop-color="white" stop-opacity="0"/>
</linearGradient>
<linearGradient id="paint2_linear_1363_39024" x1="156.385" y1="210.336" x2="292.524" y2="77.0522" gradientUnits="userSpaceOnUse">
<stop stop-color="white"/>
<stop offset="1" stop-color="white" stop-opacity="0.2"/>
</linearGradient>
</defs>
</svg>
