<svg width="18" height="18" viewBox="0 0 18 18" fill="none" xmlns="http://www.w3.org/2000/svg">
<path fill-rule="evenodd" clip-rule="evenodd" d="M12.8851 2.5575C12.8851 1.56 13.6951 0.75 14.6926 0.75C15.6901 0.75 16.5001 1.56 16.5001 2.5575C16.5001 3.555 15.6901 4.365 14.6926 4.365C13.6951 4.365 12.8851 3.555 12.8851 2.5575ZM9.9975 10.3195L12.165 7.52273L12.135 7.53773C12.255 7.37273 12.2775 7.16273 12.195 6.97523C12.1132 6.78773 11.9325 6.66023 11.7382 6.64523C11.535 6.62273 11.3333 6.71273 11.2125 6.87773L9.39825 9.22523L7.32 7.59023C7.1925 7.49273 7.0425 7.45448 6.8925 7.47023C6.74325 7.49273 6.60825 7.57448 6.5175 7.69448L4.29825 10.5827L4.2525 10.6502C4.125 10.8895 4.185 11.197 4.41 11.3627C4.515 11.4302 4.6275 11.4752 4.755 11.4752C4.92825 11.4827 5.0925 11.392 5.1975 11.2502L7.08 8.82698L9.2175 10.4327L9.285 10.477C9.525 10.6045 9.825 10.5452 9.9975 10.3195ZM11.5875 2.08523C11.5575 2.27273 11.5425 2.46023 11.5425 2.64773C11.5425 4.33523 12.9075 5.69948 14.5875 5.69948C14.775 5.69948 14.955 5.67773 15.1425 5.64773V11.6995C15.1425 14.2427 13.6425 15.7502 11.0925 15.7502H5.55075C3 15.7502 1.5 14.2427 1.5 11.6995V6.15023C1.5 3.60023 3 2.08523 5.55075 2.08523H11.5875Z" fill="white"/>
</svg>
