<svg width="115" height="34" viewBox="0 0 115 34" fill="none" xmlns="http://www.w3.org/2000/svg">
<g clip-path="url(#clip0_541_40432)">
<g filter="url(#filter0_i_541_40432)">
<path d="M110.295 34H4.00612C1.79763 34 0 32.1912 0 29.9769V4.0171C0 1.802 1.79763 0 4.00612 0H110.295C112.502 0 114.364 1.802 114.364 4.0171V29.9769C114.364 32.1912 112.502 34 110.295 34Z" fill="#2F4DE2"/>
</g>
<path d="M25.523 16.8163C25.4984 14.0767 27.7586 12.7439 27.8619 12.6819C26.5819 10.8093 24.5979 10.5535 23.9007 10.5331C22.2344 10.3571 20.618 11.5335 19.7692 11.5335C18.9034 11.5335 17.5963 10.5501 16.1875 10.579C14.3746 10.607 12.6787 11.6602 11.7485 13.2956C9.8289 16.6301 11.2606 21.5304 13.0997 24.2257C14.0197 25.5458 15.0947 27.0197 16.5018 26.9678C17.8784 26.9109 18.3926 26.0872 20.0539 26.0872C21.6998 26.0872 22.1827 26.9678 23.6178 26.9347C25.0952 26.9109 26.0253 25.6087 26.9131 24.2767C27.9763 22.7637 28.4032 21.2737 28.4202 21.1972C28.3855 21.1853 25.5509 20.0998 25.523 16.8163Z" fill="white"/>
<path d="M22.8116 8.75983C23.552 7.83078 24.0586 6.56683 23.918 5.28418C22.8464 5.33178 21.5062 6.02793 20.7345 6.93658C20.0517 7.73728 19.4417 9.04968 19.5993 10.2839C20.8031 10.374 22.039 9.67443 22.8116 8.75983Z" fill="white"/>
<path d="M45.4453 26.7781H43.5215L42.4676 23.4555H38.8046L37.8008 26.7781H35.9277L39.5569 15.4663H41.7984L45.4453 26.7781ZM42.15 22.0615L41.1969 19.1077C41.0961 18.806 40.9072 18.0954 40.6285 16.9768H40.5946C40.4836 17.4579 40.3049 18.1685 40.0592 19.1077L39.1231 22.0615H42.15Z" fill="white"/>
<path d="M54.7786 22.5995C54.7786 23.9867 54.405 25.0833 53.6578 25.8882C52.9886 26.6048 52.1576 26.9626 51.1656 26.9626C50.0948 26.9626 49.3256 26.5767 48.8571 25.8049H48.8232V30.1017H47.0171V21.3067C47.0171 20.4346 46.9942 19.5396 46.9502 18.6216H48.5386L48.6394 19.9144H48.6733C49.2756 18.9403 50.1897 18.4541 51.4163 18.4541C52.3753 18.4541 53.1758 18.8341 53.8163 19.5948C54.4584 20.3564 54.7786 21.3577 54.7786 22.5995ZM52.9386 22.6659C52.9386 21.872 52.7607 21.2175 52.4032 20.7024C52.0127 20.1652 51.4883 19.8966 50.8309 19.8966C50.3853 19.8966 49.9804 20.0462 49.6187 20.3411C49.2561 20.6386 49.0189 21.0271 48.9079 21.5082C48.852 21.7326 48.8241 21.9162 48.8241 22.0607V23.4207C48.8241 24.014 49.0054 24.5146 49.3679 24.9235C49.7305 25.3323 50.2015 25.5363 50.781 25.5363C51.4612 25.5363 51.9907 25.2728 52.3693 24.7475C52.7489 24.2213 52.9386 23.5278 52.9386 22.6659Z" fill="white"/>
<path d="M64.1283 22.5995C64.1283 23.9867 63.7547 25.0833 63.0067 25.8882C62.3383 26.6048 61.5073 26.9626 60.5153 26.9626C59.4445 26.9626 58.6753 26.5767 58.2077 25.8049H58.1738V30.1017H56.3677V21.3067C56.3677 20.4346 56.3448 19.5396 56.3008 18.6216H57.8892L57.99 19.9144H58.0239C58.6253 18.9403 59.5394 18.4541 60.7669 18.4541C61.725 18.4541 62.5255 18.8341 63.1677 19.5948C63.8073 20.3564 64.1283 21.3577 64.1283 22.5995ZM62.2883 22.6659C62.2883 21.872 62.1096 21.2175 61.7521 20.7024C61.3616 20.1652 60.8389 19.8966 60.1807 19.8966C59.7342 19.8966 59.3301 20.0462 58.9676 20.3411C58.605 20.6386 58.3686 21.0271 58.2577 21.5082C58.2026 21.7326 58.1738 21.9162 58.1738 22.0607V23.4207C58.1738 24.014 58.3551 24.5146 58.716 24.9235C59.0785 25.3315 59.5496 25.5363 60.1307 25.5363C60.8109 25.5363 61.3404 25.2728 61.7191 24.7475C62.0986 24.2213 62.2883 23.5278 62.2883 22.6659Z" fill="white"/>
<path d="M74.5819 23.6061C74.5819 24.5683 74.2489 25.3512 73.5805 25.9555C72.8461 26.616 71.8236 26.9458 70.5097 26.9458C69.2966 26.9458 68.3241 26.7112 67.5879 26.2411L68.0064 24.7307C68.7993 25.2118 69.6693 25.4532 70.6173 25.4532C71.2975 25.4532 71.827 25.2985 72.2073 24.9908C72.586 24.6831 72.7749 24.27 72.7749 23.7549C72.7749 23.2959 72.619 22.9091 72.3064 22.5955C71.9955 22.2818 71.4762 21.9903 70.7511 21.7208C68.7773 20.9822 67.7912 19.9001 67.7912 18.4772C67.7912 17.5473 68.1368 16.7849 68.8289 16.1916C69.5185 15.5974 70.4385 15.3008 71.5889 15.3008C72.6148 15.3008 73.467 15.4801 74.1473 15.838L73.6957 17.3153C73.0604 16.9685 72.342 16.7951 71.5381 16.7951C70.9027 16.7951 70.4063 16.9523 70.0505 17.2651C69.7498 17.5448 69.599 17.8856 69.599 18.2894C69.599 18.7365 69.771 19.1062 70.1166 19.3969C70.4173 19.6655 70.9637 19.9562 71.7567 20.2699C72.7266 20.6617 73.4391 21.1199 73.8974 21.6452C74.354 22.1688 74.5819 22.8241 74.5819 23.6061Z" fill="white"/>
<path d="M80.5532 19.9817H78.5624V23.9419C78.5624 24.9491 78.9132 25.4523 79.6163 25.4523C79.939 25.4523 80.2067 25.4243 80.4185 25.3682L80.4685 26.7443C80.1127 26.8778 79.6442 26.9449 79.0639 26.9449C78.3507 26.9449 77.7932 26.7265 77.3908 26.2904C76.9902 25.8535 76.7885 25.1208 76.7885 24.0915V19.98H75.6025V18.62H76.7885V17.1266L78.5624 16.5894V18.62H80.5532V19.9817Z" fill="white"/>
<path d="M89.5355 22.6328C89.5355 23.8866 89.178 24.9159 88.4647 25.7209C87.7167 26.5496 86.7239 26.9627 85.4862 26.9627C84.2934 26.9627 83.3438 26.5658 82.6356 25.7719C81.9273 24.978 81.5732 23.9758 81.5732 22.768C81.5732 21.504 81.9375 20.4687 82.6686 19.6638C83.398 18.858 84.3824 18.4551 85.62 18.4551C86.8128 18.4551 87.7726 18.852 88.4969 19.6468C89.1899 20.4177 89.5355 21.4131 89.5355 22.6328ZM87.6616 22.6915C87.6616 21.9392 87.5015 21.2941 87.1771 20.756C86.7984 20.1049 86.2571 19.7802 85.5556 19.7802C84.8296 19.7802 84.2782 20.1058 83.8995 20.756C83.575 21.2949 83.4149 21.9503 83.4149 22.7255C83.4149 23.4777 83.575 24.1229 83.8995 24.6601C84.29 25.3112 84.8356 25.6359 85.5395 25.6359C86.2291 25.6359 86.7704 25.3044 87.161 24.6431C87.4939 24.0948 87.6616 23.4429 87.6616 22.6915Z" fill="white"/>
<path d="M95.4059 20.2153C95.2271 20.1822 95.0365 20.1652 94.8366 20.1652C94.2012 20.1652 93.7099 20.4057 93.3642 20.8877C93.0635 21.3127 92.9127 21.8499 92.9127 22.4984V26.7782H91.1075L91.1244 21.1903C91.1244 20.2502 91.1015 19.3942 91.0566 18.6224H92.6298L92.6959 20.183H92.7458C92.9364 19.6467 93.2372 19.2149 93.6489 18.891C94.0513 18.5995 94.4859 18.4541 94.9543 18.4541C95.1212 18.4541 95.272 18.466 95.4059 18.4873V20.2153Z" fill="white"/>
<path d="M103.483 22.3141C103.483 22.6388 103.462 22.9125 103.417 23.1361H97.9988C98.02 23.9419 98.2818 24.5581 98.785 24.9831C99.2416 25.3631 99.832 25.5535 100.557 25.5535C101.359 25.5535 102.091 25.4251 102.75 25.1676L103.033 26.4256C102.263 26.7622 101.355 26.9296 100.307 26.9296C99.0467 26.9296 98.0573 26.5573 97.3372 25.8136C96.6188 25.0698 96.2588 24.0711 96.2588 22.8182C96.2588 21.5882 96.5934 20.564 97.2635 19.7471C97.9649 18.875 98.9129 18.439 100.106 18.439C101.277 18.439 102.164 18.875 102.767 19.7471C103.243 20.4399 103.483 21.2967 103.483 22.3141ZM101.761 21.8441C101.773 21.3069 101.655 20.8428 101.41 20.4509C101.098 19.9469 100.617 19.6953 99.971 19.6953C99.3805 19.6953 98.9002 19.9409 98.5334 20.4339C98.2326 20.8258 98.0539 21.2958 97.9988 21.8432H101.761V21.8441Z" fill="white"/>
<path d="M41.5525 8.5074C41.5525 9.50785 41.2535 10.2609 40.6563 10.7667C40.1031 11.2333 39.3169 11.4671 38.2987 11.4671C37.7938 11.4671 37.3617 11.445 37 11.4008V5.93445C37.4719 5.85795 37.9801 5.81885 38.5291 5.81885C39.4991 5.81885 40.2301 6.0305 40.7232 6.4538C41.2755 6.93235 41.5525 7.6166 41.5525 8.5074ZM40.6164 8.53205C40.6164 7.8835 40.4453 7.38625 40.1031 7.03945C39.7608 6.6935 39.261 6.5201 38.6028 6.5201C38.3232 6.5201 38.0852 6.5388 37.8878 6.5779V10.7335C37.9971 10.7505 38.197 10.7582 38.4876 10.7582C39.167 10.7582 39.6914 10.5686 40.0607 10.1895C40.4301 9.81045 40.6164 9.25795 40.6164 8.53205Z" fill="white"/>
<path d="M46.5157 9.381C46.5157 9.99725 46.3404 10.5021 45.9897 10.8982C45.622 11.3054 45.1349 11.5085 44.5267 11.5085C43.9404 11.5085 43.4737 11.3139 43.1255 10.9229C42.7782 10.5328 42.6045 10.0406 42.6045 9.4473C42.6045 8.8268 42.7832 8.31765 43.1424 7.9224C43.5016 7.52715 43.9845 7.3291 44.5927 7.3291C45.1789 7.3291 45.65 7.52375 46.0066 7.9139C46.3455 8.293 46.5157 8.7826 46.5157 9.381ZM45.5949 9.4099C45.5949 9.04015 45.5153 8.7231 45.3568 8.45875C45.1705 8.13915 44.9053 7.97935 44.5605 7.97935C44.2039 7.97935 43.9328 8.13915 43.7464 8.45875C43.5872 8.7231 43.5084 9.04525 43.5084 9.42605C43.5084 9.7958 43.588 10.1128 43.7464 10.3772C43.9387 10.6968 44.2064 10.8566 44.5521 10.8566C44.8909 10.8566 45.1569 10.6943 45.3484 10.3687C45.5127 10.0993 45.5949 9.77965 45.5949 9.4099Z" fill="white"/>
<path d="M53.1707 7.41064L51.9212 11.4175H51.1079L50.5903 9.67759C50.459 9.24324 50.3523 8.81144 50.2693 8.38304H50.2532C50.1761 8.82334 50.0693 9.25429 49.9321 9.67759L49.3823 11.4175H48.5597L47.3848 7.41064H48.2971L48.7487 9.31549C48.8579 9.76599 48.9477 10.1952 49.0197 10.6015H49.0358C49.1019 10.2666 49.2112 9.83994 49.3654 9.32399L49.9321 7.41149H50.6556L51.1986 9.28319C51.3299 9.73964 51.4366 10.1791 51.5188 10.6024H51.5434C51.6035 10.1901 51.6942 9.75069 51.8144 9.28319L52.299 7.41149H53.1707V7.41064Z" fill="white"/>
<path d="M57.7738 11.4177H56.886V9.12271C56.886 8.41551 56.6183 8.06191 56.0812 8.06191C55.8178 8.06191 55.6051 8.15881 55.4399 8.35346C55.2764 8.54811 55.1934 8.77761 55.1934 9.04026V11.4169H54.3056V8.55576C54.3056 8.20386 54.2946 7.82221 54.2734 7.40911H55.0536L55.0952 8.03556H55.1197C55.2231 7.84091 55.3773 7.68026 55.5797 7.55191C55.8203 7.40231 56.0897 7.32666 56.3845 7.32666C56.7572 7.32666 57.0673 7.44736 57.3138 7.68961C57.6205 7.98626 57.7738 8.42911 57.7738 9.01731V11.4177Z" fill="white"/>
<path d="M60.2224 11.4177H59.335V5.57227H60.2224V11.4177Z" fill="white"/>
<path d="M65.4483 9.381C65.4483 9.99725 65.273 10.5021 64.9223 10.8982C64.5546 11.3054 64.0667 11.5085 63.4593 11.5085C62.8722 11.5085 62.4054 11.3139 62.0581 10.9229C61.7108 10.5328 61.5371 10.0406 61.5371 9.4473C61.5371 8.8268 61.7159 8.31765 62.075 7.9224C62.4342 7.52715 62.9171 7.3291 63.5245 7.3291C64.1116 7.3291 64.5817 7.52375 64.9392 7.9139C65.2781 8.293 65.4483 8.7826 65.4483 9.381ZM64.5267 9.4099C64.5267 9.04015 64.447 8.7231 64.2886 8.45875C64.1031 8.13915 63.8371 7.97935 63.4931 7.97935C63.1357 7.97935 62.8646 8.13915 62.679 8.45875C62.5198 8.7231 62.441 9.04525 62.441 9.42605C62.441 9.7958 62.5206 10.1128 62.679 10.3772C62.8713 10.6968 63.139 10.8566 63.4847 10.8566C63.8235 10.8566 64.0887 10.6943 64.2801 10.3687C64.4453 10.0993 64.5267 9.77965 64.5267 9.4099Z" fill="white"/>
<path d="M69.7452 11.4176H68.9481L68.882 10.9561H68.8574C68.5846 11.3241 68.1958 11.5085 67.6909 11.5085C67.3139 11.5085 67.009 11.387 66.7794 11.1456C66.571 10.9263 66.4668 10.6535 66.4668 10.3296C66.4668 9.84 66.6701 9.46685 67.0793 9.20845C67.4876 8.95005 68.062 8.8234 68.8015 8.82935V8.75455C68.8015 8.2267 68.5253 7.9632 67.9722 7.9632C67.5782 7.9632 67.2309 8.06265 66.931 8.25985L66.7506 7.67505C67.1216 7.4447 67.5799 7.3291 68.1204 7.3291C69.1641 7.3291 69.6876 7.8816 69.6876 8.9866V10.4622C69.6876 10.8626 69.7071 11.1813 69.7452 11.4176ZM68.8235 10.0406V9.42265C67.8442 9.40565 67.3546 9.6751 67.3546 10.2302C67.3546 10.4393 67.4105 10.5956 67.5249 10.7002C67.6392 10.8047 67.7849 10.8566 67.9586 10.8566C68.1535 10.8566 68.3356 10.7946 68.5016 10.6713C68.6685 10.5472 68.771 10.39 68.8091 10.197C68.8185 10.1537 68.8235 10.101 68.8235 10.0406Z" fill="white"/>
<path d="M74.7897 11.4177H74.0018L73.9603 10.7743H73.9357C73.6841 11.2639 73.2555 11.5087 72.6532 11.5087C72.172 11.5087 71.7713 11.3191 71.4536 10.94C71.136 10.5609 70.9775 10.0688 70.9775 9.46442C70.9775 8.81587 71.1495 8.29056 71.4951 7.88936C71.8298 7.51536 72.2398 7.32836 72.7277 7.32836C73.264 7.32836 73.6392 7.50942 73.8527 7.87237H73.8697V5.57227H74.7583V10.3382C74.7583 10.7284 74.7685 11.0879 74.7897 11.4177ZM73.8697 9.72791V9.05982C73.8697 8.94422 73.8612 8.85072 73.8451 8.77932C73.7951 8.56512 73.6875 8.38492 73.524 8.23957C73.3588 8.09422 73.1598 8.02112 72.9302 8.02112C72.599 8.02112 72.3397 8.15286 72.1491 8.41722C71.9602 8.68157 71.8645 9.01901 71.8645 9.43126C71.8645 9.82736 71.9551 10.1487 72.1373 10.396C72.3296 10.6595 72.5888 10.7913 72.9132 10.7913C73.2047 10.7913 73.4376 10.6816 73.6147 10.4615C73.7858 10.2583 73.8697 10.0135 73.8697 9.72791Z" fill="white"/>
<path d="M82.3829 9.381C82.3829 9.99725 82.2076 10.5021 81.8568 10.8982C81.4892 11.3054 81.0029 11.5085 80.3938 11.5085C79.8085 11.5085 79.3417 11.3139 78.9927 10.9229C78.6453 10.5328 78.4717 10.0406 78.4717 9.4473C78.4717 8.8268 78.6504 8.31765 79.0096 7.9224C79.3688 7.52715 79.8517 7.3291 80.4608 7.3291C81.0461 7.3291 81.518 7.52375 81.8738 7.9139C82.2126 8.293 82.3829 8.7826 82.3829 9.381ZM81.4629 9.4099C81.4629 9.04015 81.3833 8.7231 81.2249 8.45875C81.0377 8.13915 80.7734 7.97935 80.4277 7.97935C80.0719 7.97935 79.8008 8.13915 79.6136 8.45875C79.4544 8.7231 79.3756 9.04525 79.3756 9.42605C79.3756 9.7958 79.4552 10.1128 79.6136 10.3772C79.8059 10.6968 80.0736 10.8566 80.4193 10.8566C80.7581 10.8566 81.025 10.6943 81.2164 10.3687C81.3799 10.0993 81.4629 9.77965 81.4629 9.4099Z" fill="white"/>
<path d="M87.1568 11.4177H86.2698V9.12271C86.2698 8.41551 86.0021 8.06191 85.4642 8.06191C85.2007 8.06191 84.9881 8.15881 84.8237 8.35346C84.6594 8.54811 84.5772 8.77761 84.5772 9.04026V11.4169H83.6886V8.55576C83.6886 8.20386 83.6784 7.82221 83.6572 7.40911H84.4366L84.4781 8.03556H84.5027C84.6069 7.84091 84.761 7.68026 84.9627 7.55191C85.2041 7.40231 85.4726 7.32666 85.7683 7.32666C86.1402 7.32666 86.4502 7.44736 86.6968 7.68961C87.0043 7.98626 87.1568 8.42911 87.1568 9.01731V11.4177Z" fill="white"/>
<path d="M93.1314 8.07824H92.1538V10.0247C92.1538 10.5194 92.3274 10.7668 92.6714 10.7668C92.8306 10.7668 92.9628 10.7532 93.067 10.7251L93.0899 11.4009C92.9145 11.4672 92.6841 11.5003 92.4003 11.5003C92.0496 11.5003 91.7768 11.3932 91.5794 11.179C91.3812 10.9648 91.2829 10.6044 91.2829 10.0987V8.07824H90.6992V7.41099H91.2829V6.67659L92.1529 6.41309V7.41014H93.1305V8.07824H93.1314Z" fill="white"/>
<path d="M97.8315 11.4177H96.9428V9.13971C96.9428 8.42146 96.6751 8.06191 96.1389 8.06191C95.7272 8.06191 95.4459 8.27016 95.2917 8.68666C95.2655 8.77421 95.2502 8.88131 95.2502 9.00711V11.4169H94.3633V5.57227H95.2502V7.98712H95.2672C95.5467 7.54767 95.9474 7.32836 96.4667 7.32836C96.8344 7.32836 97.1385 7.44906 97.3799 7.69131C97.6807 7.99306 97.8315 8.44186 97.8315 9.03516V11.4177Z" fill="white"/>
<path d="M102.679 9.22493C102.679 9.38473 102.667 9.51903 102.646 9.62868H99.9837C99.9955 10.0248 100.123 10.3265 100.369 10.5356C100.594 10.7226 100.885 10.8161 101.241 10.8161C101.635 10.8161 101.994 10.7532 102.318 10.6266L102.456 11.2454C102.078 11.4103 101.632 11.4927 101.116 11.4927C100.498 11.4927 100.011 11.31 99.6584 10.9445C99.3043 10.579 99.1289 10.0885 99.1289 9.47313C99.1289 8.86878 99.2924 8.36558 99.6219 7.96438C99.9659 7.53598 100.431 7.32178 101.018 7.32178C101.592 7.32178 102.029 7.53598 102.323 7.96438C102.562 8.30438 102.679 8.72513 102.679 9.22493ZM101.832 8.99458C101.839 8.73023 101.78 8.50243 101.66 8.31033C101.506 8.06298 101.271 7.93888 100.954 7.93888C100.664 7.93888 100.428 8.05958 100.247 8.30183C100.1 8.49478 100.012 8.72513 99.9837 8.99458H101.832Z" fill="white"/>
</g>
<defs>
<filter id="filter0_i_541_40432" x="0" y="0" width="114.363" height="34" filterUnits="userSpaceOnUse" color-interpolation-filters="sRGB">
<feFlood flood-opacity="0" result="BackgroundImageFix"/>
<feBlend mode="normal" in="SourceGraphic" in2="BackgroundImageFix" result="shape"/>
<feColorMatrix in="SourceAlpha" type="matrix" values="0 0 0 0 0 0 0 0 0 0 0 0 0 0 0 0 0 0 127 0" result="hardAlpha"/>
<feOffset/>
<feGaussianBlur stdDeviation="20"/>
<feComposite in2="hardAlpha" operator="arithmetic" k2="-1" k3="1"/>
<feColorMatrix type="matrix" values="0 0 0 0 0.791667 0 0 0 0 0.791667 0 0 0 0 0.791667 0 0 0 0.1 0"/>
<feBlend mode="normal" in2="shape" result="effect1_innerShadow_541_40432"/>
</filter>
<clipPath id="clip0_541_40432">
<rect width="114.364" height="34" fill="white"/>
</clipPath>
</defs>
</svg>
