<svg width="61" height="62" viewBox="0 0 61 62" fill="none" xmlns="http://www.w3.org/2000/svg">
<path d="M30.75 0.75C14.052 0.75 0.5 14.302 0.5 31C0.5 47.698 14.052 61.25 30.75 61.25C47.448 61.25 61 47.698 61 31C61 14.302 47.448 0.75 30.75 0.75ZM30.75 55.2C17.4098 55.2 6.55 44.3403 6.55 31C6.55 17.6598 17.4098 6.8 30.75 6.8C44.0903 6.8 54.95 17.6598 54.95 31C54.95 44.3403 44.0903 55.2 30.75 55.2ZM14.1125 47.6375L36.8303 37.0803L47.3875 14.3625L24.6698 24.9198L14.1125 47.6375ZM30.75 27.6725C32.5953 27.6725 34.0775 29.1548 34.0775 31C34.0775 32.8453 32.5953 34.3275 30.75 34.3275C28.9048 34.3275 27.4225 32.8453 27.4225 31C27.4225 29.1548 28.9048 27.6725 30.75 27.6725Z" fill="#657FFF"/>
</svg>
