<svg width="96" height="30" viewBox="0 0 96 30" fill="none" xmlns="http://www.w3.org/2000/svg">
<path d="M17.6542 22.0078H9.73535V29.9929H17.6542V22.0078Z" fill="white"/>
<path d="M24.6645 11.0176H9.73535V18.9736H27.3609V11.0176H24.6645Z" fill="white"/>
<path d="M34.2298 0H9.73535V7.98507H34.2298V0Z" fill="white"/>
<path d="M7.9188 11.0176H0V19.0014H7.9188V11.0176Z" fill="white"/>
<path d="M49.3015 10.8473V14.8537H57.3055V18.8602H49.3015V25.1275H44.1631V6.84082H58.3831V10.8182H49.3015V10.8473ZM65.7919 10.9332H60.2287V6.84082H76.4635V10.9332H70.9291V25.0985H65.7919V10.9332ZM90.0895 25.0985L86.3419 19.4324L82.6531 25.0985H76.8055L83.3623 15.8832L77.0611 6.86864H82.8223L86.4559 12.1344L90.0319 6.86864H95.5675L89.2651 15.6824L95.9923 25.1263H90.0895V25.0985Z" fill="white"/>
</svg>
