<svg width="146" height="43" viewBox="0 0 146 43" fill="none" xmlns="http://www.w3.org/2000/svg">
<path d="M140.806 42H5.11433C2.84289 42 1 40.1558 1 37.912V5.08045C1 2.83763 2.84082 1 5.11433 1H140.806C143.099 1 145 2.85773 145 5.08045V37.912C145 40.1357 143.096 42 140.806 42Z" fill="#2F4DE2" stroke="white" stroke-width="2"/>
<path d="M53.2875 12.3812C53.3042 12.7331 53.2483 13.0847 53.1233 13.4148C52.9982 13.7449 52.8065 14.0467 52.5598 14.3018C52.2836 14.5831 51.9503 14.8038 51.5816 14.9495C51.2129 15.0952 50.8172 15.1627 50.4202 15.1475C50.0182 15.1618 49.6175 15.0938 49.2434 14.948C48.8694 14.8021 48.5301 14.5814 48.247 14.3C47.9639 14.0185 47.7432 13.6823 47.5986 13.3125C47.4541 12.9428 47.389 12.5476 47.4073 12.1518C47.389 11.7561 47.4541 11.3608 47.5986 10.9911C47.7432 10.6214 47.9639 10.2852 48.247 10.0037C48.5301 9.72221 48.8694 9.50157 49.2434 9.3557C49.6175 9.20982 50.0182 9.14188 50.4202 9.15616C50.8307 9.15686 51.2368 9.23976 51.6137 9.39983C51.9692 9.53608 52.2845 9.75782 52.5307 10.0448L52.0212 10.5465C51.8263 10.318 51.5804 10.137 51.3026 10.0177C51.0249 9.8983 50.7229 9.84383 50.4202 9.85849C50.1253 9.8557 49.8329 9.91137 49.5604 10.0222C49.2878 10.133 49.0407 10.2967 48.8337 10.5035C48.6123 10.7176 48.4385 10.9747 48.3233 11.2585C48.208 11.5422 48.1538 11.8464 48.1642 12.1518C48.1538 12.4573 48.208 12.7615 48.3233 13.0452C48.4385 13.3289 48.6123 13.586 48.8337 13.8002C49.2635 14.2143 49.8408 14.4461 50.442 14.4461C51.0433 14.4461 51.6206 14.2143 52.0503 13.8002C52.3514 13.4842 52.527 13.0721 52.5452 12.6392H50.4202V11.9512H53.2438C53.2721 12.0928 53.2867 12.2368 53.2875 12.3812V12.3812Z" fill="white"/>
<path d="M57.7556 9.98749H55.1066V11.8078H57.4936V12.4958H55.1066V14.3162H57.7556V15.0185H54.3643V9.28516H57.7556V9.98749Z" fill="white"/>
<path d="M60.9135 15.0185H60.1566V9.98749H58.541V9.28516H62.5436V9.98749H60.9135V15.0185Z" fill="white"/>
<path d="M65.4541 15.0185V9.28516H66.2107V15.0185H65.4541Z" fill="white"/>
<path d="M69.4858 15.0185H68.7435V9.98749H67.1133V9.28516H71.1159V9.98749H69.4858V15.0185Z" fill="white"/>
<path d="M78.6832 14.2731C78.4044 14.5509 78.0723 14.7714 77.7063 14.9219C77.3403 15.0724 76.9476 15.1499 76.551 15.1499C76.1543 15.1499 75.7616 15.0724 75.3956 14.9219C75.0296 14.7714 74.6975 14.5509 74.4187 14.2731C73.8497 13.6977 73.5312 12.9262 73.5312 12.1231C73.5312 11.3199 73.8497 10.5485 74.4187 9.97306C74.6975 9.69527 75.0296 9.47473 75.3956 9.32421C75.7616 9.1737 76.1543 9.09619 76.551 9.09619C76.9476 9.09619 77.3403 9.1737 77.7063 9.32421C78.0723 9.47473 78.4044 9.69527 78.6832 9.97306C79.2522 10.5485 79.5707 11.3199 79.5707 12.1231C79.5707 12.9262 79.2522 13.6977 78.6832 14.2731V14.2731ZM74.9718 13.8001C75.1772 14.0089 75.424 14.1739 75.6969 14.2849C75.9699 14.3958 76.263 14.4504 76.5582 14.4451C76.8512 14.4501 77.1422 14.3954 77.4127 14.2844C77.6832 14.1734 77.9275 14.0085 78.1302 13.8001C78.3482 13.5842 78.5189 13.3265 78.6315 13.0429C78.7442 12.7593 78.7965 12.456 78.7851 12.1517C78.7965 11.8474 78.7442 11.5441 78.6315 11.2606C78.5189 10.977 78.3482 10.7193 78.1302 10.5034C77.9275 10.295 77.6832 10.13 77.4127 10.019C77.1422 9.90805 76.8512 9.85335 76.5582 9.85839C76.263 9.85309 75.9699 9.90761 75.6969 10.0186C75.424 10.1295 75.1772 10.2946 74.9718 10.5034C74.7556 10.72 74.5872 10.9782 74.477 11.2618C74.3668 11.5454 74.3172 11.8484 74.3313 12.1517C74.3172 12.4551 74.3668 12.758 74.477 13.0417C74.5872 13.3253 74.7556 13.5835 74.9718 13.8001Z" fill="white"/>
<path d="M80.5898 15.0185V9.28516H81.4631L84.3741 13.7428V9.28516H85.1164V15.0185H84.3741L81.4631 10.3458V15.0185H80.5898Z" fill="white"/>
<path d="M73.3736 23.375C72.5574 23.3779 71.7603 23.6187 71.0828 24.067C70.4053 24.5154 69.8778 25.1513 69.5668 25.8945C69.2558 26.6378 69.1751 27.4551 69.3351 28.2433C69.495 29.0316 69.8884 29.7556 70.4655 30.3241C71.0427 30.8925 71.7778 31.2799 72.5783 31.4374C73.3787 31.5949 74.2085 31.5155 74.9632 31.2092C75.7178 30.9029 76.3635 30.3834 76.8188 29.7162C77.274 29.0489 77.5185 28.2639 77.5214 27.46C77.5333 26.9204 77.4342 26.3839 77.2299 25.883C77.0257 25.3821 76.7206 24.9271 76.3331 24.5454C75.9455 24.1637 75.4835 23.8632 74.9749 23.6621C74.4663 23.4609 73.9216 23.3633 73.3736 23.375V23.375ZM73.3736 29.8967C72.87 29.943 72.364 29.838 71.9221 29.5955C71.4803 29.353 71.1235 28.9843 70.8986 28.5381C70.6737 28.0919 70.5914 27.5891 70.6624 27.0959C70.7334 26.6027 70.9545 26.1422 71.2965 25.7752C71.6384 25.4082 72.0853 25.1518 72.5781 25.0398C73.071 24.9278 73.5867 24.9655 74.0574 25.1479C74.5281 25.3303 74.9316 25.6489 75.2148 26.0616C75.498 26.4744 75.6477 26.9619 75.644 27.46C75.6677 28.0788 75.4426 28.6818 75.0175 29.1381C74.5924 29.5943 74.0016 29.8669 73.3736 29.8967V29.8967ZM64.3504 23.375C63.5335 23.375 62.735 23.6134 62.0556 24.0601C61.3762 24.5067 60.8464 25.1417 60.5331 25.8846C60.2199 26.6276 60.1372 27.4454 60.2955 28.2346C60.4538 29.0238 60.846 29.7492 61.4226 30.319C61.9992 30.8889 62.7343 31.2777 63.5351 31.4364C64.3359 31.5951 65.1665 31.5165 65.922 31.2106C66.6775 30.9047 67.324 30.3852 67.7799 29.7177C68.2359 29.0501 68.4807 28.2645 68.4836 27.46C68.4954 26.9216 68.3967 26.3864 68.1934 25.8864C67.9901 25.3865 67.6863 24.9321 67.3003 24.5506C66.9143 24.1691 66.454 23.8684 65.9471 23.6664C65.4402 23.4643 64.8971 23.3653 64.3504 23.375V23.375ZM64.3504 29.8967C63.8481 29.9313 63.3469 29.8159 62.9122 29.5655C62.4776 29.3152 62.1296 28.9416 61.9139 28.4936C61.6982 28.0455 61.6247 27.5437 61.7031 27.0539C61.7814 26.564 62.0079 26.1088 62.353 25.7477C62.6981 25.3866 63.1457 25.1364 63.6374 25.0297C64.1291 24.9231 64.6421 24.9649 65.1093 25.1499C65.5765 25.3348 65.9762 25.6542 66.2562 26.0663C66.5362 26.4784 66.6836 26.9642 66.6789 27.46C66.6906 27.7711 66.6394 28.0814 66.5283 28.3728C66.4172 28.6643 66.2485 28.9311 66.0318 29.1578C65.8152 29.3844 65.555 29.5665 65.2663 29.6933C64.9777 29.8202 64.6663 29.8893 64.3504 29.8967ZM53.6098 24.5934V26.3134H57.7867C57.729 27.1237 57.3958 27.8912 56.8407 28.492C56.4185 28.9089 55.9139 29.236 55.3581 29.453C54.8024 29.6699 54.2073 29.7722 53.6098 29.7534C52.3746 29.7534 51.19 29.2701 50.3166 28.41C49.4433 27.5498 48.9526 26.3832 48.9526 25.1667C48.9526 23.9502 49.4433 22.7836 50.3166 21.9234C51.19 21.0633 52.3746 20.58 53.6098 20.58C54.1907 20.5692 54.7679 20.6726 55.3077 20.8843C55.8475 21.0959 56.339 21.4116 56.7533 21.8127L57.9904 20.5944C57.4166 20.0335 56.7348 19.5911 55.9851 19.2933C55.2353 18.9954 54.4327 18.8481 53.6243 18.86C51.926 18.86 50.2972 19.5245 49.0963 20.7072C47.8954 21.8899 47.2207 23.4941 47.2207 25.1667C47.2207 26.8393 47.8954 28.4435 49.0963 29.6262C50.2972 30.8089 51.926 31.4734 53.6243 31.4734C54.4136 31.5198 55.2039 31.4033 55.9448 31.1313C56.6857 30.8594 57.3607 30.438 57.9265 29.8942C58.4924 29.3503 58.9367 28.6961 59.2309 27.9733C59.5251 27.2506 59.6627 26.4752 59.635 25.697C59.6299 25.3248 59.5811 24.9545 59.4894 24.5934H53.6098ZM97.5472 26.0267C97.2953 25.2928 96.8214 24.6523 96.1893 24.1911C95.5572 23.73 94.797 23.4702 94.0107 23.4467C93.4914 23.4596 92.98 23.5741 92.5061 23.7836C92.0323 23.993 91.6055 24.2933 91.2506 24.6668C90.8957 25.0403 90.6199 25.4796 90.4391 25.9592C90.2583 26.4387 90.1762 26.9489 90.1976 27.46C90.1859 27.9941 90.2833 28.5251 90.4841 29.0214C90.6849 29.5177 90.985 29.9691 91.3665 30.3489C91.7481 30.7286 92.2032 31.0289 92.705 31.232C93.2067 31.435 93.7448 31.5366 94.2872 31.5307C94.9668 31.5333 95.6363 31.3696 96.2358 31.0544C96.8353 30.7391 97.3459 30.2823 97.7219 29.7247L96.2665 28.8074C96.0524 29.1498 95.7526 29.4324 95.3959 29.6282C95.0391 29.8239 94.6374 29.9262 94.229 29.9254C93.8095 29.9402 93.3952 29.8306 93.0397 29.6108C92.6842 29.391 92.4039 29.0712 92.2351 28.6927L97.751 26.4567L97.5472 26.0267ZM91.915 27.3884C91.8953 27.0931 91.9357 26.7968 92.0339 26.5171C92.1321 26.2374 92.286 25.9798 92.4867 25.7595C92.6873 25.5392 92.9306 25.3606 93.2024 25.2342C93.4741 25.1078 93.7687 25.0361 94.0689 25.0234C94.3838 24.9992 94.6988 25.0681 94.9736 25.2213C95.2484 25.3746 95.4706 25.6051 95.6116 25.8834L91.915 27.3884ZM87.4324 31.2584H89.2516V19.3187H87.4324V31.2584ZM84.5217 24.278C84.244 23.9871 83.9077 23.7565 83.5343 23.601C83.1609 23.4455 82.7586 23.3685 82.3532 23.375C81.3013 23.4366 80.313 23.8915 79.5903 24.6468C78.8676 25.4021 78.4651 26.4007 78.4651 27.4385C78.4651 28.4763 78.8676 29.475 79.5903 30.2303C80.313 30.9856 81.3013 31.4405 82.3532 31.502C82.7373 31.4921 83.1152 31.4042 83.4633 31.2439C83.8114 31.0836 84.1221 30.8543 84.3762 30.5704V31.158C84.3762 32.7204 83.5321 33.5517 82.1786 33.5517C81.7266 33.5423 81.2876 33.4012 80.9172 33.146C80.5467 32.8909 80.2614 32.5332 80.0974 32.1184L78.5547 32.749C78.8512 33.4617 79.3576 34.0706 80.0087 34.4972C80.6598 34.9238 81.4257 35.1487 82.2077 35.1427C84.3325 35.1427 86.1226 33.91 86.1226 30.9144V23.6187H84.4635L84.5217 24.278ZM82.3823 29.8967C81.7533 29.8494 81.1656 29.5698 80.7368 29.1141C80.308 28.6583 80.0698 28.0599 80.0698 27.4385C80.0698 26.8172 80.308 26.2188 80.7368 25.763C81.1656 25.3072 81.7533 25.0277 82.3823 24.9804C82.6948 24.9947 83.0011 25.0709 83.283 25.2045C83.5649 25.338 83.8166 25.5261 84.0231 25.7575C84.2296 25.989 84.3866 26.259 84.4847 26.5515C84.5829 26.844 84.6202 27.153 84.5945 27.46C84.6162 27.764 84.5757 28.0692 84.4755 28.3576C84.3753 28.6459 84.2174 28.9115 84.0112 29.1387C83.8049 29.3659 83.5545 29.55 83.2747 29.6802C82.9949 29.8104 82.6915 29.884 82.3823 29.8967V29.8967ZM106.032 19.3187H101.666V31.2584H103.471V26.729H106.003C106.517 26.7605 107.031 26.688 107.516 26.5161C108 26.3441 108.443 26.0763 108.818 25.7292C109.193 25.382 109.492 24.9629 109.697 24.4976C109.901 24.0324 110.006 23.5308 110.006 23.0239C110.006 22.5169 109.901 22.0154 109.697 21.5501C109.492 21.0848 109.193 20.6657 108.818 20.3186C108.443 19.9714 108 19.7036 107.516 19.5317C107.031 19.3597 106.517 19.2872 106.003 19.3187H106.032ZM106.032 25.052H103.5V20.9814H106.076C106.363 20.9577 106.651 20.9929 106.924 21.0848C107.196 21.1767 107.446 21.3232 107.658 21.5152C107.87 21.7072 108.039 21.9404 108.155 22.2001C108.271 22.4598 108.331 22.7403 108.331 23.0239C108.331 23.3075 108.271 23.588 108.155 23.8477C108.039 24.1074 107.87 24.3406 107.658 24.5325C107.446 24.7245 107.196 24.8711 106.924 24.963C106.651 25.0549 106.363 25.0901 106.076 25.0664L106.032 25.052ZM117.224 23.3464C116.563 23.3046 115.905 23.4548 115.331 23.7785C114.756 24.1021 114.291 24.5848 113.993 25.1667L115.594 25.826C115.755 25.5383 115.998 25.3027 116.292 25.1476C116.587 24.9925 116.92 24.9245 117.253 24.9517C117.712 24.9076 118.17 25.0441 118.527 25.3315C118.884 25.6188 119.112 26.0336 119.159 26.4854V26.6144C118.576 26.3114 117.927 26.1539 117.267 26.1557C115.536 26.1557 113.775 27.0874 113.775 28.836C113.789 29.2105 113.88 29.5781 114.044 29.9164C114.207 30.2547 114.439 30.5566 114.725 30.8035C115.012 31.0505 115.346 31.2372 115.708 31.3524C116.07 31.4676 116.452 31.5088 116.831 31.4734C117.283 31.5009 117.734 31.4092 118.139 31.2077C118.543 31.0061 118.885 30.702 119.13 30.3267H119.203V31.244H120.949V26.6574C120.956 26.1939 120.863 25.7343 120.676 25.3091C120.489 24.8838 120.212 24.5026 119.864 24.1908C119.515 23.8791 119.104 23.6438 118.656 23.5007C118.209 23.3575 117.735 23.3098 117.267 23.3607L117.224 23.3464ZM117.005 29.8824C116.409 29.8824 115.55 29.5957 115.55 28.8647C115.55 28.1337 116.583 27.589 117.471 27.589C118.051 27.5759 118.623 27.7144 119.13 27.9904C119.069 28.4994 118.826 28.9704 118.445 29.3195C118.064 29.6686 117.569 29.8731 117.049 29.8967L117.005 29.8824ZM127.193 23.6044L125.112 28.7787L122.958 23.6044H121.066L124.297 30.8427L122.463 34.856H124.34L129.318 23.6044H127.193ZM111.009 31.2584H112.814V19.3187H111.009V31.2584Z" fill="white"/>
<path d="M38.036 19.9487L19.7566 9.65735C19.448 9.47808 19.0961 9.38401 18.7378 9.38502H18.3594C18.1288 9.4295 17.9074 9.51187 17.7045 9.62868C17.3931 9.80572 17.1349 10.0607 16.956 10.3679C16.777 10.675 16.6838 11.0233 16.6857 11.3774V32.003C16.679 32.4752 16.8441 32.9342 17.1511 33.297C17.458 33.6597 17.8866 33.9024 18.3594 33.981H18.7378C19.0961 33.982 19.448 33.888 19.7566 33.7087L38.036 23.4174C38.3407 23.246 38.5956 23.0005 38.7765 22.7044C38.9574 22.4083 39.0582 22.0714 39.0693 21.726C39.0683 21.3708 38.9722 21.0222 38.7908 20.7152C38.6094 20.4082 38.349 20.1537 38.036 19.9774V19.9487ZM30.7591 17.899L28.9836 20.2927L24.4137 14.2727L30.7591 17.899ZM37.1045 21.9267L24.3264 29.0934L32.3746 18.8594L37.1482 21.554C37.1895 21.5741 37.2247 21.6045 37.2503 21.6423C37.2758 21.68 37.2908 21.7238 37.2937 21.769C37.2934 21.8168 37.2796 21.8635 37.2539 21.904C37.2282 21.9445 37.1916 21.9771 37.1482 21.9984L37.1045 21.9267Z" fill="white"/>
</svg>
