<svg width="356" height="80" viewBox="0 0 356 80" fill="none" xmlns="http://www.w3.org/2000/svg">
<circle cx="40" cy="40" r="40" fill="#252241"/>
<mask id="mask0_597_41057" style="mask-type:alpha" maskUnits="userSpaceOnUse" x="7" y="8" width="65" height="65">
<path d="M39.998 72.0078C57.6712 72.0078 71.998 57.6809 71.998 40.0078C71.998 22.3347 57.6712 8.00781 39.998 8.00781C22.3249 8.00781 7.99805 22.3347 7.99805 40.0078C7.99805 57.6809 22.3249 72.0078 39.998 72.0078Z" fill="#848484"/>
</mask>
<g mask="url(#mask0_597_41057)">
<path d="M39.998 72.0078C57.6712 72.0078 71.998 57.6809 71.998 40.0078C71.998 22.3347 57.6712 8.00781 39.998 8.00781C22.3249 8.00781 7.99805 22.3347 7.99805 40.0078C7.99805 57.6809 22.3249 72.0078 39.998 72.0078Z" fill="white"/>
<path d="M37.2761 57.919L24.6387 44.8076C24.6387 44.8076 29.2279 53.5682 31.3587 58.8876C33.3939 63.9686 35.6787 72.1676 35.6787 72.1676L38.3987 72.8076L37.4539 58.3215C37.4441 58.1705 37.3811 58.0278 37.2761 57.919Z" fill="#252241"/>
<path d="M15.998 26.4082L8.95801 31.8482L9.91801 28.4882L15.998 26.4082Z" fill="#252241"/>
<path d="M15.6775 20.488L22.7175 23.208L15.0005 22.2631C14.9193 22.2531 14.8369 22.2589 14.7578 22.2799L12.4775 22.888L15.6775 18.568L34.3975 17.288L25.2775 15.048H35.4198C35.5852 15.048 35.7441 15.112 35.8634 15.2267L39.7904 19.0026C39.8217 19.0328 39.8541 19.0584 39.8911 19.0814C40.3416 19.3614 43.5432 21.3281 46.0776 22.248C47.8654 22.897 50.8824 23.5506 51.9387 23.7704C52.1716 23.819 52.3598 23.9912 52.427 24.2197L53.0398 26.3037C53.0894 26.4724 53.2062 26.6133 53.363 26.6932L60.9576 30.568L55.3345 25.5698C55.2449 25.4902 55.1796 25.387 55.1457 25.2721L54.4862 23.0294C54.4302 22.8393 54.2894 22.6858 54.1048 22.6138L48.1857 20.3038C47.9707 20.2199 47.8174 20.0267 47.7848 19.7982L47.2603 16.127C47.2225 15.863 47.0264 15.6503 46.7656 15.594C45.2315 15.2621 39.9428 14.1375 36.3175 13.608C32.0295 12.9817 25.2775 12.488 25.2775 12.488L19.9975 14.728V7.20801H73.7576V71.688H43.0376C43.0376 71.688 43.9454 68.8534 44.3176 66.888C44.7153 64.7862 44.9576 61.288 44.9576 61.288C45.4884 63.199 45.7576 65.1734 45.7576 67.1571V70.568L50.0776 64.168L58.0776 57.768L58.7176 54.408L61.7576 56.008L61.2776 52.488L56.0049 48.8803C55.6241 48.6198 55.636 48.0541 56.027 47.8096L59.8859 45.3978C60.1387 45.24 60.4667 45.2771 60.6776 45.488L61.5537 46.3642C61.6833 46.4938 61.7512 46.6726 61.7403 46.8557L61.4801 51.1475C61.4715 51.2896 61.6664 51.3376 61.7246 51.2077L63.5176 47.208L63.3576 44.488H63.9976V40.648L63.0376 42.088L62.4379 38.3404C62.412 38.1784 62.4491 38.013 62.5396 37.876C62.748 37.56 63.1358 36.953 63.3576 36.488C63.564 36.0548 63.7752 35.4323 63.8958 35.0554C63.9524 34.8789 63.8443 34.6949 63.6622 34.6608C63.1611 34.5669 62.1796 34.408 61.2776 34.408C60.2526 34.408 58.81 34.6094 57.9208 34.7513C57.6334 34.7972 57.5595 35.1701 57.8036 35.3285C58.323 35.6657 59.0286 36.1319 59.5176 36.488C60.1192 36.926 60.6404 37.6262 60.8542 37.9342C60.9233 38.0339 60.9576 38.1525 60.9576 38.274V42.728L54.3976 45.768L40.4868 40.1411C40.396 40.1043 40.3147 40.2112 40.3748 40.289L49.4376 52.008L39.0448 46.4966C38.9753 46.4598 38.8935 46.5174 38.9048 46.5952L40.1576 55.208L33.2509 46.2608C33.1645 46.1488 33.1175 46.0112 33.1175 45.8698V39.9532C33.1175 39.8634 33.0053 39.8227 32.9478 39.8917L28.3175 45.448L30.1926 37.7914C30.222 37.6717 30.2852 37.563 30.3748 37.4783L32.917 35.0774C33.045 34.9565 33.1175 34.7882 33.1175 34.6121V27.8013C33.1175 27.5396 33.2769 27.3043 33.5199 27.2071L41.572 23.9863C42.0536 23.7937 42.1179 23.1382 41.683 22.8555L36.4926 19.4818C36.3788 19.4078 36.2446 19.372 36.1091 19.3793L15.6775 20.488Z" fill="#252241"/>
<path d="M46.5583 27.5286C44.917 27.6172 42.2383 28.1686 42.2383 28.1686C42.2383 28.1686 44.6412 28.945 46.0783 29.2888C47.5154 29.6324 49.7583 29.9287 49.7583 29.9287L50.3983 28.0085C50.3983 28.0085 48.1192 27.4444 46.5583 27.5286Z" fill="white"/>
<path d="M52.9574 29.7676L51.3574 30.4076C51.3574 30.4076 53.0294 30.8502 54.0774 31.2076C55.3513 31.642 57.2774 32.4876 57.2774 32.4876C57.2774 32.4876 55.3942 31.0698 54.5574 30.5676C53.7574 30.0876 52.9574 29.7676 52.9574 29.7676Z" fill="white"/>
</g>
<path d="M111.047 52.6502H105.51V50.6867L114.687 25.7002H120.573L129.789 50.6867V52.6502H123.865L121.851 46.5287H113.177L111.047 52.6502ZM117.514 33.7082L114.958 41.5622H120.031L117.514 33.7082ZM142.65 53.1122C139.888 53.1122 137.707 52.4577 136.106 51.1487C134.506 49.8397 133.705 48.0174 133.705 45.6817V39.4062C133.705 37.0962 134.506 35.2739 136.106 33.9392C137.733 32.6045 139.914 31.9372 142.65 31.9372C145.258 31.9372 147.336 32.5917 148.885 33.9007C150.434 35.2097 151.208 37.0192 151.208 39.3292V44.3342H139.204V45.6432C139.204 46.4389 139.488 47.0677 140.056 47.5297C140.65 47.966 141.515 48.1842 142.65 48.1842C144.277 48.1842 145.284 47.6195 145.671 46.4902H151.17C150.963 48.5692 150.111 50.199 148.614 51.3797C147.116 52.5347 145.129 53.1122 142.65 53.1122ZM139.204 39.3292V40.3687H145.71V39.3292C145.71 38.5592 145.426 37.956 144.858 37.5197C144.316 37.0834 143.515 36.8652 142.457 36.8652C141.399 36.8652 140.585 37.0834 140.017 37.5197C139.475 37.956 139.204 38.5592 139.204 39.3292ZM157.389 32.3992H160.525L162.035 34.2857C163.377 32.72 165.069 31.9372 167.108 31.9372H168.58V37.1347H167.108C165.172 37.1347 163.765 37.6865 162.887 38.7902V52.6502H157.389V32.3992ZM181.353 48.1842C182.411 48.1842 183.237 47.9275 183.831 47.4142C184.451 46.9009 184.761 46.2335 184.761 45.4122V39.6757C184.761 38.8287 184.451 38.1485 183.831 37.6352C183.237 37.1219 182.411 36.8652 181.353 36.8652C180.243 36.8652 179.391 37.1347 178.797 37.6737C178.203 38.187 177.906 38.8544 177.906 39.6757V45.4122C177.906 46.2335 178.203 46.9009 178.797 47.4142C179.391 47.9275 180.243 48.1842 181.353 48.1842ZM172.408 45.6047V39.4062C172.408 37.1475 173.195 35.338 174.77 33.9777C176.344 32.6174 178.539 31.9372 181.353 31.9372C184.166 31.9372 186.348 32.6174 187.897 33.9777C189.471 35.338 190.259 37.1475 190.259 39.4062V45.6047C190.259 47.8634 189.471 49.6857 187.897 51.0717C186.348 52.432 184.166 53.1122 181.353 53.1122C178.539 53.1122 176.344 52.432 174.77 51.0717C173.195 49.6857 172.408 47.8634 172.408 45.6047ZM199.643 52.6502H194.957V50.1092L200.379 42.5247L195.035 34.9402V32.3992H199.992L203.786 38.3667L207.697 32.3992H212.344V34.9402L207.194 42.2937L212.732 50.1092V52.6502H207.814L203.709 46.2207L199.643 52.6502Z" fill="white"/>
<path d="M238.587 53.2276C235.308 53.2276 232.752 52.3806 230.92 50.6866C229.112 48.9669 228.209 46.5799 228.209 43.5256V34.8246C228.209 31.7702 229.112 29.3961 230.92 27.7021C232.752 25.9824 235.308 25.1226 238.587 25.1226C241.401 25.1226 243.75 25.9054 245.635 27.4711C247.519 29.0367 248.461 31.3082 248.461 34.2856V34.6706H245.092V34.2856C245.092 32.3092 244.434 30.8077 243.117 29.7811C241.827 28.7287 240.303 28.2026 238.548 28.2026C236.302 28.2026 234.572 28.7672 233.359 29.8966C232.171 31.0002 231.578 32.5659 231.578 34.5936V43.7566C231.578 45.7842 232.171 47.3627 233.359 48.4921C234.572 49.5957 236.302 50.1476 238.548 50.1476C240.303 50.1476 241.827 49.6214 243.117 48.5691C244.434 47.5424 245.092 46.0409 245.092 44.0646V43.6796H248.461V44.0646C248.461 47.0419 247.519 49.3134 245.635 50.8791C243.75 52.4447 241.401 53.2276 238.587 53.2276ZM260.511 53.1121C258.575 53.1121 256.988 52.6116 255.749 51.6106C254.535 50.5839 253.928 49.1722 253.928 47.3756C253.928 45.3479 254.626 43.7951 256.02 42.7171C257.439 41.6134 259.491 41.0616 262.177 41.0616H267.172V39.0981C267.172 37.8661 266.771 36.9164 265.971 36.2491C265.197 35.5561 264.061 35.2096 262.564 35.2096C261.118 35.2096 259.995 35.5432 259.195 36.2106C258.394 36.8779 257.994 37.7634 257.994 38.8671H254.974C254.974 36.8907 255.632 35.3251 256.949 34.1701C258.266 32.9894 260.137 32.3991 262.564 32.3991C265.016 32.3991 266.914 32.9894 268.256 34.1701C269.598 35.3507 270.27 36.9292 270.27 38.9056V52.6501H268.411L267.249 50.1476C266.5 50.9946 265.52 51.7004 264.306 52.2651C263.119 52.8297 261.854 53.1121 260.511 53.1121ZM261.131 50.3016C263.3 50.3016 265.313 49.3776 267.172 47.5296V43.5641H262.177C258.743 43.5641 257.026 44.7191 257.026 47.0291C257.026 48.0814 257.388 48.8899 258.111 49.4546C258.859 50.0192 259.866 50.3016 261.131 50.3016ZM287.148 32.3991C289.265 32.3991 290.956 33.0407 292.221 34.3241C293.512 35.6074 294.157 37.3912 294.157 39.6756V45.8356C294.157 48.1199 293.512 49.9037 292.221 51.1871C290.93 52.4704 289.201 53.1121 287.032 53.1121C284.45 53.1121 282.346 52.1496 280.72 50.2246V58.8101H277.622V32.8611H279.481L280.565 35.4791C282.398 33.4257 284.592 32.3991 287.148 32.3991ZM286.567 50.3016C287.909 50.3016 288.994 49.8781 289.82 49.0311C290.646 48.1584 291.059 47.0162 291.059 45.6046V39.9066C291.059 38.4949 290.646 37.3656 289.82 36.5186C288.994 35.6459 287.923 35.2096 286.606 35.2096C284.618 35.2096 282.656 36.2491 280.72 38.3281V47.1831C282.656 49.2621 284.605 50.3016 286.567 50.3016ZM304.269 52.6501H301.171V32.8611H304.269V52.6501ZM304.269 29.7426H301.171V25.5076H304.269V29.7426ZM321.001 52.6501H319.142C316.845 52.6501 315.205 52.0469 314.224 50.8406C313.269 49.6342 312.791 48.0942 312.791 46.2206V35.5561H309.539V32.8611H312.791V28.7416H315.889V32.8611H321.001V35.5561H315.889V46.1436C315.889 48.6076 316.974 49.8396 319.142 49.8396H321.001V52.6501ZM332.47 53.1121C330.534 53.1121 328.946 52.6116 327.707 51.6106C326.494 50.5839 325.887 49.1722 325.887 47.3756C325.887 45.3479 326.584 43.7951 327.978 42.7171C329.398 41.6134 331.451 41.0616 334.135 41.0616H339.13V39.0981C339.13 37.8661 338.731 36.9164 337.93 36.2491C337.156 35.5561 336.02 35.2096 334.522 35.2096C333.077 35.2096 331.954 35.5432 331.153 36.2106C330.354 36.8779 329.953 37.7634 329.953 38.8671H326.933C326.933 36.8907 327.591 35.3251 328.908 34.1701C330.224 32.9894 332.096 32.3991 334.522 32.3991C336.975 32.3991 338.873 32.9894 340.215 34.1701C341.557 35.3507 342.228 36.9292 342.228 38.9056V52.6501H340.37L339.208 50.1476C338.459 50.9946 337.479 51.7004 336.265 52.2651C335.078 52.8297 333.813 53.1121 332.47 53.1121ZM333.09 50.3016C335.258 50.3016 337.272 49.3776 339.13 47.5296V43.5641H334.135C330.702 43.5641 328.985 44.7191 328.985 47.0291C328.985 48.0814 329.347 48.8899 330.069 49.4546C330.818 50.0192 331.825 50.3016 333.09 50.3016ZM352.679 52.6501H349.581V25.5076H352.679V52.6501Z" fill="#737185"/>
</svg>
