<svg width="172" height="34" viewBox="0 0 172 34" fill="none" xmlns="http://www.w3.org/2000/svg">
<circle cx="17" cy="17" r="17" fill="#1B1C1E"/>
<mask id="mask0_882_59583" style="mask-type:alpha" maskUnits="userSpaceOnUse" x="2" y="2" width="30" height="30">
<path d="M17.0009 31.7333C25.1379 31.7333 31.7342 25.137 31.7342 17C31.7342 8.86301 25.1379 2.26667 17.0009 2.26667C8.86392 2.26667 2.26758 8.86301 2.26758 17C2.26758 25.137 8.86392 31.7333 17.0009 31.7333Z" fill="#848484"/>
</mask>
<g mask="url(#mask0_882_59583)">
<path d="M17.0009 31.7333C25.1379 31.7333 31.7342 25.137 31.7342 17C31.7342 8.86301 25.1379 2.26667 17.0009 2.26667C8.86392 2.26667 2.26758 8.86301 2.26758 17C2.26758 25.137 8.86392 31.7333 17.0009 31.7333Z" fill="white"/>
<path d="M15.7472 25.2465L9.92871 19.2099C9.92871 19.2099 12.0417 23.2434 13.0227 25.6925C13.9598 28.0319 15.0117 31.8068 15.0117 31.8068L16.2641 32.1015L15.8291 25.4319C15.8245 25.3623 15.7955 25.2966 15.7472 25.2465Z" fill="#1B1C1E"/>
<path d="M5.95129 10.7384L2.70996 13.2431L3.15196 11.6961L5.95129 10.7384Z" fill="#1B1C1E"/>
<path d="M5.80341 8.01272L9.04475 9.26506L5.4917 8.83C5.45431 8.82541 5.41637 8.82805 5.37996 8.83776L4.33008 9.11772L5.80341 7.12872L14.4224 6.53939L10.2234 5.50806H14.8931C14.9692 5.50806 15.0424 5.53754 15.0973 5.59031L16.9054 7.32883C16.9198 7.34272 16.9347 7.35453 16.9517 7.36512C17.1591 7.49402 18.6332 8.3995 19.8001 8.82306C20.6232 9.12186 22.0123 9.42279 22.4986 9.52401C22.6059 9.54636 22.6925 9.62566 22.7235 9.73085L23.0056 10.6904C23.0285 10.768 23.0822 10.8329 23.1544 10.8697L26.6511 12.6537L24.0622 10.3525C24.0209 10.3158 23.9908 10.2683 23.9752 10.2154L23.6716 9.18283C23.6458 9.0953 23.581 9.02464 23.496 8.99147L20.7707 7.92793C20.6717 7.88929 20.6011 7.80031 20.5861 7.6951L20.3446 6.00485C20.3272 5.88327 20.2369 5.78538 20.1169 5.75942C19.4105 5.60662 16.9755 5.08885 15.3064 4.84506C13.3321 4.55668 10.2234 4.32939 10.2234 4.32939L7.79241 5.36072V1.89839H32.5444V31.5861H18.4004C18.4004 31.5861 18.8184 30.281 18.9898 29.3761C19.1729 28.4084 19.2844 26.7977 19.2844 26.7977C19.5288 27.6776 19.6528 28.5867 19.6528 29.5V31.0704L21.6418 28.1237L25.3251 25.1771L25.6198 23.6301L27.0194 24.3667L26.7984 22.7461L24.3708 21.085C24.1955 20.9651 24.2009 20.7046 24.381 20.592L26.1577 19.4816C26.2741 19.409 26.4251 19.4261 26.5222 19.5231L26.9256 19.9265C26.9852 19.9862 27.0165 20.0686 27.0115 20.1528L26.8917 22.1289C26.8877 22.1943 26.9774 22.2164 27.0043 22.1566L27.8298 20.3151L27.7561 19.0627H28.0508V17.2947L27.6088 17.9577L27.3327 16.2323C27.3207 16.1577 27.3378 16.0815 27.3795 16.0185C27.4754 15.873 27.654 15.5935 27.7561 15.3794C27.8511 15.1799 27.9484 14.8933 28.0039 14.7198C28.03 14.6385 27.9802 14.5538 27.8964 14.5381C27.6656 14.4949 27.2138 14.4217 26.7984 14.4217C26.3265 14.4217 25.6623 14.5145 25.2529 14.5798C25.1206 14.6009 25.0866 14.7726 25.199 14.8455C25.4381 15.0008 25.763 15.2155 25.9881 15.3794C26.2651 15.581 26.5051 15.9034 26.6035 16.0452C26.6353 16.0912 26.6511 16.1458 26.6511 16.2017V18.2524L23.6308 19.6521L17.226 17.0614C17.1842 17.0444 17.1468 17.0936 17.1745 17.1294L21.3471 22.5251L16.5621 19.9875C16.5301 19.9706 16.4924 19.9971 16.4976 20.0329L17.0744 23.9984L13.8945 19.879C13.8547 19.8274 13.8331 19.764 13.8331 19.6989V16.9748C13.8331 16.9335 13.7814 16.9148 13.7549 16.9465L11.6231 19.5047L12.4864 15.9795C12.4999 15.9244 12.529 15.8743 12.5703 15.8354L13.7407 14.7299C13.7997 14.6743 13.8331 14.5968 13.8331 14.5157V11.3799C13.8331 11.2594 13.9064 11.151 14.0183 11.1063L17.7256 9.6234C17.9474 9.53471 17.977 9.23291 17.7768 9.10275L15.387 7.54943C15.3346 7.5154 15.2728 7.49888 15.2104 7.50226L5.80341 8.01272Z" fill="#1B1C1E"/>
<path d="M20.0212 11.2543C19.2656 11.295 18.0322 11.5489 18.0322 11.5489C18.0322 11.5489 19.1386 11.9064 19.8002 12.0647C20.4619 12.2229 21.4946 12.3593 21.4946 12.3593L21.7892 11.4752C21.7892 11.4752 20.7399 11.2155 20.0212 11.2543Z" fill="white"/>
<path d="M22.9681 12.2852L22.2314 12.5799C22.2314 12.5799 23.0013 12.7836 23.4838 12.9482C24.0703 13.1482 24.9571 13.5375 24.9571 13.5375C24.9571 13.5375 24.0901 12.8847 23.7048 12.6535C23.3364 12.4325 22.9681 12.2852 22.9681 12.2852Z" fill="white"/>
</g>
<path d="M50.778 22.0744H48V21.1418L52.6041 9.27442H55.557L60.1805 21.1418V22.0744H57.2082L56.198 19.167H51.8465L50.778 22.0744ZM54.0223 13.0778L52.7401 16.8081H55.285L54.0223 13.0778ZM66.6327 22.2938C65.247 22.2938 64.1524 21.983 63.3496 21.3613C62.5467 20.7396 62.1451 19.874 62.1451 18.7647V15.7841C62.1451 14.687 62.5467 13.8215 63.3496 13.1876C64.1655 12.5536 65.2597 12.2367 66.6327 12.2367C67.9406 12.2367 68.9833 12.5476 69.7603 13.1693C70.5374 13.791 70.9259 14.6504 70.9259 15.7476V18.1247H64.9037V18.7464C64.9037 19.1243 65.0461 19.423 65.3311 19.6424C65.6289 19.8496 66.0629 19.9533 66.6327 19.9533C67.4486 19.9533 67.9537 19.6851 68.1479 19.1487H70.9065C70.803 20.1361 70.3756 20.9102 69.6244 21.471C68.8731 22.0196 67.876 22.2938 66.6327 22.2938ZM64.9037 15.7476V16.2413H68.1674V15.7476C68.1674 15.3818 68.025 15.0954 67.74 14.8881C67.468 14.6809 67.0664 14.5773 66.5355 14.5773C66.0046 14.5773 65.5967 14.6809 65.3116 14.8881C65.0397 15.0954 64.9037 15.3818 64.9037 15.7476ZM74.0264 12.4561H75.6L76.3576 13.3521C77.0309 12.6085 77.8793 12.2367 78.9025 12.2367H79.6407V14.7053H78.9025C77.9312 14.7053 77.2252 14.9674 76.785 15.4916V22.0744H74.0264V12.4561ZM86.0488 19.9533C86.5797 19.9533 86.994 19.8314 87.2921 19.5876C87.6029 19.3438 87.7583 19.0268 87.7583 18.6367V15.9121C87.7583 15.5098 87.6029 15.1868 87.2921 14.943C86.994 14.6992 86.5797 14.5773 86.0488 14.5773C85.4918 14.5773 85.0644 14.7053 84.7666 14.9613C84.4685 15.2051 84.3198 15.522 84.3198 15.9121V18.6367C84.3198 19.0268 84.4685 19.3438 84.7666 19.5876C85.0644 19.8314 85.4918 19.9533 86.0488 19.9533ZM81.5612 18.7281V15.7841C81.5612 14.7114 81.9561 13.8519 82.7462 13.2058C83.5361 12.5598 84.637 12.2367 86.0488 12.2367C87.4602 12.2367 88.5548 12.5598 89.3319 13.2058C90.1217 13.8519 90.5169 14.7114 90.5169 15.7841V18.7281C90.5169 19.8009 90.1217 20.6664 89.3319 21.3247C88.5548 21.9708 87.4602 22.2938 86.0488 22.2938C84.637 22.2938 83.5361 21.9708 82.7462 21.3247C81.9561 20.6664 81.5612 19.8009 81.5612 18.7281ZM95.2245 22.0744H92.8739V20.8676L95.5936 17.2653L92.9128 13.663V12.4561H95.3994L97.3032 15.2904L99.2653 12.4561H101.596V13.663L99.0127 17.1556L101.791 20.8676V22.0744H99.3235L97.2643 19.0207L95.2245 22.0744Z" fill="#1B1C1E"/>
<path d="M114.762 22.3486C113.117 22.3486 111.835 21.9463 110.916 21.1417C110.009 20.3249 109.556 19.1912 109.556 17.7406V13.608C109.556 12.1573 110.009 11.0297 110.916 10.2251C111.835 9.40837 113.117 9 114.762 9C116.174 9 117.352 9.3718 118.298 10.1154C119.243 10.8591 119.716 11.9379 119.716 13.352V13.5349H118.026V13.352C118.026 12.4133 117.695 11.7002 117.035 11.2126C116.387 10.7128 115.623 10.4629 114.743 10.4629C113.616 10.4629 112.748 10.7311 112.139 11.2674C111.544 11.7916 111.246 12.5352 111.246 13.4983V17.8503C111.246 18.8133 111.544 19.5631 112.139 20.0994C112.748 20.6236 113.616 20.8857 114.743 20.8857C115.623 20.8857 116.387 20.6358 117.035 20.136C117.695 19.6484 118.026 18.9352 118.026 17.9966V17.8137H119.716V17.9966C119.716 19.4107 119.243 20.4895 118.298 21.2331C117.352 21.9768 116.174 22.3486 114.762 22.3486ZM125.761 22.2937C124.79 22.2937 123.993 22.056 123.372 21.5806C122.763 21.0929 122.459 20.4225 122.459 19.5691C122.459 18.6061 122.808 17.8686 123.508 17.3566C124.22 16.8324 125.249 16.5703 126.596 16.5703H129.102V15.6377C129.102 15.0526 128.902 14.6015 128.5 14.2846C128.112 13.9554 127.542 13.7909 126.791 13.7909C126.065 13.7909 125.502 13.9493 125.101 14.2663C124.699 14.5832 124.498 15.0038 124.498 15.528H122.983C122.983 14.5893 123.313 13.8457 123.974 13.2971C124.634 12.7364 125.573 12.456 126.791 12.456C128.021 12.456 128.973 12.7364 129.646 13.2971C130.32 13.8579 130.657 14.6076 130.657 15.5463V22.0743H129.724L129.141 20.8857C128.766 21.288 128.274 21.6232 127.665 21.8914C127.069 22.1596 126.434 22.2937 125.761 22.2937ZM126.072 20.9589C127.16 20.9589 128.17 20.52 129.102 19.6423V17.7589H126.596C124.874 17.7589 124.013 18.3074 124.013 19.4046C124.013 19.9044 124.194 20.2884 124.557 20.5566C124.932 20.8248 125.437 20.9589 126.072 20.9589ZM139.124 12.456C140.186 12.456 141.034 12.7608 141.669 13.3703C142.317 13.9798 142.64 14.8271 142.64 15.912V18.8377C142.64 19.9227 142.317 20.7699 141.669 21.3794C141.021 21.9889 140.154 22.2937 139.066 22.2937C137.771 22.2937 136.715 21.8366 135.899 20.9223V25H134.345V12.6754H135.278L135.822 13.9189C136.741 12.9436 137.842 12.456 139.124 12.456ZM138.833 20.9589C139.506 20.9589 140.05 20.7577 140.465 20.3554C140.879 19.9409 141.086 19.3985 141.086 18.728V16.0217C141.086 15.3512 140.879 14.8149 140.465 14.4126C140.05 13.9981 139.513 13.7909 138.852 13.7909C137.855 13.7909 136.871 14.2846 135.899 15.272V19.4777C136.871 20.4651 137.848 20.9589 138.833 20.9589ZM147.713 22.0743H146.159V12.6754H147.713V22.0743ZM147.713 11.1943H146.159V9.18286H147.713V11.1943ZM156.107 22.0743H155.175C154.022 22.0743 153.2 21.7878 152.708 21.2149C152.228 20.6419 151.989 19.9105 151.989 19.0206V13.9554H150.357V12.6754H151.989V10.7189H153.543V12.6754H156.107V13.9554H153.543V18.984C153.543 20.1543 154.087 20.7394 155.175 20.7394H156.107V22.0743ZM161.861 22.2937C160.89 22.2937 160.093 22.056 159.472 21.5806C158.863 21.0929 158.559 20.4225 158.559 19.5691C158.559 18.6061 158.908 17.8686 159.608 17.3566C160.32 16.8324 161.35 16.5703 162.696 16.5703H165.202V15.6377C165.202 15.0526 165.002 14.6015 164.6 14.2846C164.212 13.9554 163.642 13.7909 162.891 13.7909C162.166 13.7909 161.602 13.9493 161.201 14.2663C160.799 14.5832 160.598 15.0038 160.598 15.528H159.083C159.083 14.5893 159.413 13.8457 160.074 13.2971C160.734 12.7364 161.674 12.456 162.891 12.456C164.121 12.456 165.073 12.7364 165.746 13.2971C166.42 13.8579 166.757 14.6076 166.757 15.5463V22.0743H165.824L165.241 20.8857C164.866 21.288 164.374 21.6232 163.765 21.8914C163.169 22.1596 162.535 22.2937 161.861 22.2937ZM162.172 20.9589C163.26 20.9589 164.27 20.52 165.202 19.6423V17.7589H162.696C160.974 17.7589 160.113 18.3074 160.113 19.4046C160.113 19.9044 160.294 20.2884 160.657 20.5566C161.032 20.8248 161.538 20.9589 162.172 20.9589ZM171.999 22.0743H170.445V9.18286H171.999V22.0743Z" fill="#737185"/>
</svg>
