<svg width="18" height="18" viewBox="0 0 18 18" fill="none" xmlns="http://www.w3.org/2000/svg">
<path fill-rule="evenodd" clip-rule="evenodd" d="M10.6593 5.82181C10.6593 7.80463 9.03671 9.39362 7.012 9.39362C4.98802 9.39362 3.36473 7.80463 3.36473 5.82181C3.36473 3.83899 4.98802 2.25 7.012 2.25C9.03671 2.25 10.6593 3.83899 10.6593 5.82181ZM1.5 13.438C1.5 11.6025 4.03914 11.1433 7.012 11.1433C10.001 11.1433 12.524 11.6183 12.524 13.4553C12.524 15.2908 9.98485 15.75 7.012 15.75C4.023 15.75 1.5 15.275 1.5 13.438ZM12.1301 5.88656C12.1301 6.8963 11.8204 7.83848 11.2773 8.62111C11.2208 8.70161 11.2707 8.81013 11.3691 8.82737C11.5056 8.84965 11.6457 8.86331 11.7888 8.86618C13.2125 8.90283 14.4901 8.00521 14.8431 6.65339C15.3664 4.64757 13.8311 2.84657 11.8754 2.84657C11.6633 2.84657 11.4601 2.86813 11.2619 2.90766C11.2348 2.91341 11.2054 2.92634 11.1907 2.94934C11.1716 2.97881 11.1856 3.0169 11.2047 3.04205C11.7925 3.84912 12.1301 4.83155 12.1301 5.88656ZM14.4879 10.2767C15.4449 10.46 16.0738 10.833 16.3343 11.377C16.5552 11.8226 16.5552 12.34 16.3343 12.7856C15.9358 13.6279 14.6501 13.8988 14.1504 13.9686C14.0469 13.9829 13.964 13.8967 13.975 13.7946C14.2304 11.4604 12.1998 10.3536 11.6743 10.0992C11.6523 10.087 11.6472 10.0697 11.6494 10.0582C11.6509 10.0511 11.6604 10.0396 11.6773 10.0374C12.814 10.0158 14.0366 10.1689 14.4879 10.2767Z" fill="white"/>
</svg>
