<svg width="26" height="26" viewBox="0 0 26 26" fill="none" xmlns="http://www.w3.org/2000/svg">
<path d="M0.459237 12.5357L6.45016 14.7717L8.76901 22.2291C8.91738 22.7067 9.50143 22.8832 9.88909 22.5663L13.2285 19.8439C13.5786 19.5587 14.0772 19.5445 14.443 19.81L20.4662 24.183C20.8808 24.4844 21.4684 24.2572 21.5724 23.7561L25.9847 2.53217C26.0982 1.98479 25.5603 1.52814 25.0391 1.72973L0.452217 11.2146C-0.154537 11.4486 -0.14925 12.3077 0.459237 12.5357ZM8.3953 13.5814L20.1038 6.37012C20.3142 6.2409 20.5307 6.52543 20.35 6.69304L10.6871 15.6752C10.3475 15.9913 10.1284 16.4144 10.0663 16.8737L9.73716 19.313C9.69357 19.6387 9.23606 19.671 9.14618 19.3558L7.88024 14.9077C7.73525 14.4003 7.94654 13.8584 8.3953 13.5814Z" fill="#737185"/>
</svg>
